<?xml version="1.0" standalone="no"?>
<!DOCTYPE svg PUBLIC "-//W3C//DTD SVG 20010904//EN"
 "http://www.w3.org/TR/2001/REC-SVG-20010904/DTD/svg10.dtd">
<svg version="1.0" xmlns="http://www.w3.org/2000/svg"
 width="300.000000pt" height="112.000000pt" viewBox="0 0 300.000000 112.000000"
 preserveAspectRatio="xMidYMid meet">
<metadata>
Created by potrace 1.10, written by Peter Selinger 2001-2011
</metadata>
<g transform="translate(0.000000,112.000000) scale(0.100000,-0.100000)"
fill="#000000" stroke="none">
<path d="M880 1102 c0 -24 -4 -25 -165 -48 -60 -9 -119 -18 -130 -20 -11 -2
-39 -6 -63 -10 -27 -4 -47 -14 -53 -25 -5 -11 -6 -19 -2 -19 3 0 -6 -13 -21
-29 -16 -16 -34 -27 -41 -25 -9 4 -11 -2 -8 -19 3 -14 0 -28 -6 -31 -11 -7
-15 6 -11 34 1 8 13 27 26 41 13 14 21 29 17 34 -5 4 -3 6 2 2 13 -7 42 9 33
19 -4 3 -23 3 -43 0 -26 -5 -35 -11 -31 -22 3 -8 1 -14 -4 -14 -6 0 -8 16 -4
38 l6 39 -58 11 c-49 10 -74 9 -168 -8 -155 -29 -156 -29 -156 -41 0 -6 5 -7
10 -4 6 3 10 -1 10 -9 0 -9 -5 -16 -12 -16 -6 0 -8 -3 -5 -6 9 -9 38 16 31 27
-3 5 2 9 11 9 20 0 16 -32 -5 -42 -12 -5 -12 -7 3 -7 9 -1 17 -6 17 -12 0 -6
-11 -8 -28 -5 -23 6 -27 3 -28 -18 -1 -17 2 -23 12 -19 8 3 14 -1 14 -11 0 -9
-7 -16 -15 -16 -8 0 -15 -5 -15 -11 0 -6 11 -8 27 -5 59 13 79 16 128 17 27 1
61 -1 75 -5 18 -5 21 -5 10 3 -13 9 -13 10 0 15 40 12 59 13 64 2 2 -6 5 -3 5
6 1 9 -3 18 -7 20 -13 5 -24 98 -12 98 6 0 10 -8 11 -17 0 -14 2 -13 9 5 l10
22 20 -20 c11 -11 20 -27 20 -35 0 -8 5 -15 10 -15 6 0 10 -5 10 -11 0 -5 -4
-7 -10 -4 -6 4 -9 -4 -7 -17 1 -18 -3 -23 -20 -22 -18 0 -20 -2 -12 -13 8 -9
8 -13 0 -14 -26 -3 -30 -4 -37 -12 -4 -4 -3 -7 2 -8 5 0 16 -2 26 -4 9 -2 18
5 21 16 3 10 10 19 15 19 14 0 24 -32 13 -43 -9 -9 -67 -17 -126 -18 -16 -1
-52 -7 -79 -15 -68 -19 -73 -18 -81 17 -6 28 -10 31 -37 25 -17 -3 -34 -6 -39
-6 -5 0 -9 -8 -9 -17 0 -13 2 -15 8 -5 7 9 13 8 27 -8 18 -20 18 -20 -8 -20
-30 0 -38 -19 -9 -21 9 -1 20 -1 23 -1 7 1 18 -102 21 -197 2 -49 -1 -56 -30
-82 l-32 -29 25 0 c16 0 25 6 25 15 0 8 7 15 15 15 21 0 19 -17 -4 -30 -14 -7
-18 -17 -15 -40 5 -28 -8 -42 -19 -20 -3 6 -4 5 -3 -2 1 -7 17 -14 35 -16 23
-2 31 -8 27 -17 -3 -8 0 -12 7 -9 7 2 13 -6 13 -21 1 -15 -3 -25 -12 -25 -8 0
-14 -7 -14 -16 0 -8 5 -12 10 -9 6 4 10 -5 10 -19 0 -17 -6 -26 -16 -26 -9 0
-12 -5 -8 -12 4 -7 3 -8 -4 -4 -7 4 -12 2 -12 -3 0 -6 6 -11 14 -11 14 0 26
-39 29 -96 2 -27 5 -30 22 -24 14 5 21 18 23 44 3 33 1 36 -22 36 -19 0 -26 5
-26 20 0 11 5 20 10 20 6 0 10 -7 10 -16 0 -8 5 -12 10 -9 8 5 8 11 1 19 -15
17 -2 27 19 16 17 -9 30 -4 30 12 0 5 -4 7 -9 3 -5 -3 -17 5 -25 17 -13 18
-16 19 -16 5 0 -9 -4 -17 -10 -17 -5 0 -10 16 -10 37 0 35 1 36 19 19 12 -11
21 -14 26 -7 9 15 25 14 20 -1 -3 -7 -1 -20 5 -28 8 -13 11 -13 22 -1 10 10
10 12 1 7 -7 -4 -13 -3 -13 3 0 16 15 21 46 12 23 -6 29 -13 29 -34 1 -14 4
-29 8 -33 4 -4 7 13 7 39 0 42 -2 46 -30 52 -16 4 -34 4 -39 1 -5 -4 -12 -2
-16 4 -9 15 37 30 53 18 6 -6 12 -7 12 -3 0 4 8 1 17 -6 15 -12 16 -12 10 4
-4 10 -7 26 -7 34 0 16 -14 9 -16 -8 -1 -5 -2 -12 -3 -16 0 -3 -10 2 -21 12
-11 10 -20 13 -20 7 0 -6 -12 -9 -27 -6 -21 3 -24 2 -13 -5 13 -9 12 -12 -4
-24 -33 -24 -56 -10 -56 34 0 31 -3 37 -16 32 -14 -5 -16 0 -12 30 2 21 0 37
-4 37 -4 0 -8 -13 -8 -30 0 -16 -4 -30 -10 -30 -16 0 -12 47 6 64 11 12 14 29
10 73 -4 32 -8 103 -10 158 l-5 100 52 0 c111 2 247 17 247 28 0 16 45 67 59
67 6 0 11 8 11 18 0 17 48 69 95 103 18 13 19 12 8 -2 -7 -9 -11 -18 -8 -20 8
-9 -44 -61 -54 -54 -7 4 -11 -4 -11 -18 0 -14 -6 -27 -14 -30 -7 -3 -16 -16
-19 -29 l-6 -23 19 23 c19 22 21 23 37 7 16 -16 18 -16 35 5 18 22 19 22 39 4
21 -18 21 -18 39 4 21 26 27 27 46 7 12 -11 20 -12 35 -5 20 11 25 25 10 34
-5 3 -11 -1 -15 -9 -7 -18 -36 -9 -36 12 0 9 6 13 15 10 8 -4 17 -2 20 3 4 6
1 10 -6 10 -19 0 100 104 121 105 14 1 17 -2 10 -14 -10 -19 -50 -57 -50 -48
0 4 -8 -1 -18 -10 -17 -17 -21 -60 -8 -82 10 -16 44 -8 60 14 12 17 14 17 35
-4 21 -21 24 -22 41 -6 12 11 19 12 22 5 2 -6 28 -15 58 -20 62 -8 58 -9 -55
-16 -44 -2 -143 -12 -220 -20 -77 -9 -173 -18 -212 -21 l-73 -6 0 -52 0 -52
-46 -7 c-26 -3 -70 -6 -99 -6 -29 0 -73 -3 -98 -6 l-47 -7 6 -76 c11 -163 16
-201 25 -195 6 3 8 12 5 20 -3 8 1 17 10 21 11 4 12 8 4 13 -8 5 -7 12 5 24
17 16 35 14 35 -5 0 -6 -4 -7 -10 -4 -5 3 -10 1 -10 -5 0 -7 6 -10 13 -8 20 7
14 32 -11 43 -12 6 -20 16 -17 23 3 8 5 25 5 38 0 13 4 24 8 24 4 0 7 -17 5
-37 -3 -31 -2 -34 6 -16 11 25 47 47 61 38 17 -10 11 -25 -9 -25 -11 0 -22 -4
-25 -8 -3 -5 10 -8 29 -8 19 1 35 2 35 3 0 1 -4 13 -10 27 -8 22 -7 26 9 26
14 0 17 -6 15 -27 -2 -18 -1 -20 3 -8 9 34 53 50 53 20 0 -8 -6 -15 -14 -15
-8 0 -17 -7 -20 -16 -5 -14 -4 -15 9 -4 13 11 19 10 35 -5 21 -19 28 -41 9
-29 -20 12 -107 10 -102 -3 3 -6 11 -9 19 -6 9 3 14 -2 14 -15 0 -23 15 -37
24 -23 4 5 0 12 -6 14 -10 4 -9 8 2 16 11 8 17 6 21 -7 4 -9 3 -19 -1 -22 -3
-3 -9 -13 -13 -23 -6 -15 -3 -17 16 -11 19 6 81 8 104 2 17 -3 43 15 37 26 -3
6 3 1 14 -11 l19 -22 22 23 c22 24 20 50 -5 60 -17 7 -19 -15 -2 -32 17 -17 2
-27 -17 -12 -9 7 -13 21 -10 31 4 11 2 19 -4 19 -6 0 -10 -3 -10 -7 4 -24 -2
-36 -11 -27 -11 11 17 74 33 74 11 0 9 -18 -3 -23 -6 -3 -5 -4 2 -3 16 3 24
46 9 46 -6 0 -11 5 -11 11 0 5 4 8 9 5 4 -3 7 10 6 29 -2 44 10 45 20 3 l8
-33 4 28 c3 19 9 27 18 23 8 -3 28 -1 46 4 18 5 35 8 37 5 2 -2 -12 -20 -32
-40 -35 -34 -47 -53 -26 -40 13 8 13 -6 0 -25 -6 -9 -13 -11 -17 -5 -5 6 -16
11 -25 13 -15 2 -16 -1 -7 -28 9 -25 15 -29 33 -24 36 11 46 25 46 66 0 23 4
37 10 33 5 -3 9 -16 8 -28 0 -12 4 -35 11 -50 14 -36 14 -40 -1 -31 -8 5 -8 1
2 -12 22 -29 24 -30 17 -12 -3 10 -3 17 1 17 4 -1 10 0 15 1 4 1 13 3 20 4 7
1 11 12 9 29 -2 15 2 41 10 57 l13 30 107 0 108 0 0 -85 0 -85 35 0 35 0 0
241 c0 210 -2 240 -15 235 -20 -7 -20 51 -1 77 14 18 13 70 -2 75 -5 1 -7 14
-4 29 3 18 1 24 -7 19 -6 -4 -12 -19 -12 -34 -1 -24 -3 -23 -9 8 -7 31 -8 32
-9 8 -1 -31 -28 -68 -49 -68 -10 0 -13 12 -11 40 2 21 0 42 -4 46 -4 4 -7 -2
-7 -14z m-20 -52 c-6 -11 -8 -20 -4 -20 3 0 1 -7 -6 -15 -7 -8 -9 -15 -5 -15
4 0 1 -8 -6 -17 -12 -15 -12 -16 3 -10 10 3 20 1 24 -5 5 -7 -2 -9 -19 -6 -20
4 -30 -1 -42 -19 -9 -13 -20 -21 -25 -18 -9 5 -14 -7 -12 -26 1 -4 -8 -5 -18
-2 -27 7 -25 29 3 38 12 3 17 9 11 11 -9 4 92 124 104 124 1 0 -2 -9 -8 -20z
m-600 -10 c0 -5 -4 -10 -10 -10 -5 0 -10 5 -10 10 0 6 5 10 10 10 6 0 10 -4
10 -10z m726 -16 c0 -12 -4 -20 -8 -18 -4 3 -8 0 -8 -6 0 -7 -6 -5 -16 4 -12
13 -13 18 -2 29 19 21 34 16 34 -9z m-796 1 c0 -8 -7 -15 -15 -15 -26 0 -18
20 13 29 1 1 2 -6 2 -14z m30 5 c0 -5 9 -10 20 -10 15 0 20 -7 20 -25 0 -16
-6 -25 -15 -25 -18 0 -20 17 -3 22 7 3 6 7 -5 11 -11 4 -17 1 -17 -8 0 -8 -6
-15 -12 -15 -9 0 -9 -3 1 -9 8 -5 12 -15 9 -23 -4 -9 2 -14 16 -15 11 0 15 1
9 4 -18 7 -16 23 2 23 13 0 17 -10 14 -37 0 -5 -14 -9 -30 -10 -20 -2 -29 2
-29 12 0 9 -10 16 -22 16 -19 1 -17 3 7 9 17 4 22 8 13 9 -10 0 -18 7 -18 15
0 8 -6 17 -12 20 -7 4 -3 4 10 2 18 -3 22 0 22 20 0 13 5 24 10 24 6 0 10 -4
10 -10z m491 -4 c5 3 9 3 9 0 0 -7 -49 -56 -56 -56 -12 0 -34 -29 -34 -44 0
-9 -6 -16 -14 -16 -8 0 -18 -9 -21 -21 -5 -16 -10 -18 -21 -8 -19 15 -18 29 2
29 9 0 14 5 12 11 -2 6 21 35 52 65 30 29 57 49 58 43 2 -5 8 -7 13 -3z m-581
-11 c0 -8 -7 -15 -15 -15 -26 0 -18 20 13 29 1 1 2 -6 2 -14z m17 -32 c-3 -10
-5 -2 -5 17 0 19 2 27 5 18 2 -10 2 -26 0 -35z m213 37 c0 -5 -4 -10 -10 -10
-5 0 -10 5 -10 10 0 6 5 10 10 10 6 0 10 -4 10 -10z m255 0 c-9 -14 8 -13 23
2 7 7 12 8 12 4 0 -5 -22 -29 -50 -54 -27 -25 -50 -51 -50 -57 0 -7 -9 -15
-21 -18 -12 -3 -18 -10 -15 -16 4 -5 3 -12 -2 -15 -4 -2 -13 4 -20 14 -10 16
-8 20 8 25 11 4 20 12 20 18 0 6 21 33 47 59 46 47 60 58 48 38z m-529 -15
c-3 -8 1 -21 9 -29 8 -8 15 -19 15 -24 0 -6 6 -13 13 -16 6 -4 2 -4 -10 -2
-13 2 -23 1 -23 -4 0 -4 11 -10 25 -12 21 -5 25 -1 26 21 1 25 2 25 9 -4 4
-16 8 -24 9 -17 1 17 31 15 31 -2 0 -16 -80 -28 -81 -11 0 5 -3 4 -6 -2 -6
-16 -63 -17 -63 -2 0 6 6 9 14 6 15 -6 30 19 20 34 -3 5 3 9 13 10 14 0 15 2
3 6 -8 3 -18 10 -21 16 -9 13 1 47 13 47 6 0 8 -7 4 -15z m834 5 c-19 -13 -30
-13 -30 0 0 6 10 10 23 10 18 0 19 -2 7 -10z m30 -69 c0 -20 -5 -31 -14 -31
-8 0 -21 -3 -30 -6 -13 -5 -16 2 -16 39 0 35 4 46 18 49 25 5 42 -16 42 -51z
m-823 43 c-3 -3 -12 -4 -19 -1 -8 3 -5 6 6 6 11 1 17 -2 13 -5z m840 -56 c-2
-13 -4 -5 -4 17 -1 22 1 32 4 23 2 -10 2 -28 0 -40z m-105 -4 c-2 -14 -9 -27
-15 -31 -5 -3 -7 -1 -4 4 4 6 0 13 -8 17 -23 9 -18 31 8 32 20 1 23 -2 19 -22z
m-795 0 c-3 -3 -12 -4 -19 -1 -8 3 -5 6 6 6 11 1 17 -2 13 -5z m853 -84 c0 -5
-4 -12 -10 -15 -5 -3 -10 0 -10 7 0 10 -2 11 -8 0 -5 -7 -16 -10 -26 -6 -12 5
-17 2 -16 -7 4 -28 0 -49 -11 -49 -6 0 -8 9 -4 20 9 27 -3 25 -16 -2 -9 -21
-9 -21 -6 5 4 22 1 27 -12 25 -10 -2 -15 -12 -13 -24 2 -15 -4 -23 -18 -27
-17 -4 -20 -1 -18 24 1 18 7 28 14 25 7 -3 18 2 24 10 10 11 10 14 -1 16 -8 1
13 4 46 7 64 7 85 4 85 -9z m69 -174 c-2 -185 -7 -233 -23 -207 -4 6 -4 16 -1
21 3 6 0 10 -7 11 -7 0 -8 2 -3 5 12 5 7 95 -6 109 -5 5 -9 63 -8 130 0 66 4
111 8 101 7 -19 8 -19 13 2 4 12 11 22 18 22 8 0 11 -53 9 -194z m-925 169
c-4 -8 -8 -15 -10 -15 -2 0 -4 7 -4 15 0 8 4 15 10 15 5 0 7 -7 4 -15z m669
-2 c-24 -2 -43 -8 -43 -14 0 -5 3 -8 8 -8 23 4 32 -4 32 -26 0 -18 -5 -25 -20
-25 -14 0 -20 7 -20 24 0 27 -15 35 -68 37 l-37 2 40 7 c22 4 65 7 95 7 46 0
48 -1 13 -4z m-160 -27 c-4 -21 -2 -24 18 -19 19 5 21 3 17 -15 -5 -17 -1 -23
18 -28 13 -3 24 -10 24 -14 0 -14 -29 -19 -42 -7 -17 15 -38 20 -38 9 0 -16
48 -35 74 -30 15 3 23 1 19 -5 -3 -5 -24 -7 -47 -4 -22 3 -57 2 -76 -3 -22 -6
37 -7 155 -3 107 3 194 10 200 15 7 7 -9 8 -47 4 -37 -4 -58 -2 -58 4 0 5 25
10 55 10 30 0 55 4 55 10 0 5 -13 8 -30 6 -19 -2 -30 1 -30 9 0 7 14 15 30 19
21 4 30 11 30 26 0 11 5 20 11 20 7 0 8 -18 4 -54 -4 -30 -3 -60 1 -68 21 -34
12 -48 -35 -49 -42 -1 -43 -2 -16 -9 20 -5 2 -7 -52 -6 -46 0 -83 4 -83 9 0 4
-9 7 -20 7 -16 0 -20 -6 -18 -32 2 -26 -1 -33 -14 -33 -10 0 -17 -5 -15 -10 1
-6 8 -9 15 -9 14 2 15 -6 4 -23 -5 -8 -13 -9 -22 -3 -8 6 -11 10 -6 10 5 0 3
7 -4 15 -7 8 -10 22 -6 30 3 8 1 15 -4 15 -20 0 -9 16 11 17 26 2 39 14 22 20
-7 3 -13 11 -13 19 0 11 -18 14 -79 14 -71 0 -80 2 -86 20 -4 13 -15 20 -31
20 -15 0 -23 -4 -19 -11 4 -6 14 -8 22 -5 12 5 14 1 10 -14 -3 -11 0 -20 5
-20 13 0 2 -78 -14 -97 -17 -21 -30 -15 -22 9 6 20 5 21 -10 9 -9 -7 -16 -9
-16 -3 0 5 -11 10 -25 10 -14 0 -25 -6 -25 -12 0 -6 -5 -4 -10 4 -8 12 -10 10
-10 -8 0 -13 -4 -21 -9 -18 -14 9 0 48 15 42 8 -3 14 1 14 10 0 8 3 13 8 11 4
-3 8 11 10 31 1 20 7 41 14 47 8 7 9 5 5 -8 -4 -11 -3 -16 3 -12 17 10 11 35
-7 36 -15 0 -15 2 2 9 17 7 17 9 3 9 -12 1 -18 9 -18 26 0 22 4 25 35 25 19 0
35 -4 35 -10 0 -5 -13 -7 -30 -3 -24 4 -30 2 -30 -12 0 -9 6 -15 13 -12 6 2
22 0 35 -4 20 -8 22 -6 22 28 0 20 3 33 7 30 3 -4 6 -23 5 -42 -1 -19 3 -35 8
-35 6 0 10 22 10 49 l0 50 38 4 c20 2 38 4 38 5 1 1 -1 -9 -3 -22z m97 -21 c0
-18 -5 -25 -20 -25 -20 0 -28 28 -13 43 15 16 33 6 33 -18z m216 -2 c-10 -10
-19 5 -10 18 6 11 8 11 12 0 2 -7 1 -15 -2 -18z m-89 -36 c3 -4 12 -2 20 4 10
9 13 8 13 -5 0 -13 -11 -16 -50 -16 -44 0 -60 7 -45 21 6 7 54 4 62 -4z m-80
-10 c-5 -18 -57 -22 -57 -4 0 9 11 14 31 15 19 0 29 -4 26 -11z m-352 -86 l-7
-41 -110 0 c-96 0 -109 2 -104 16 3 9 6 24 6 35 0 10 5 19 10 19 6 0 10 -6 9
-12 -1 -7 -1 -20 0 -28 1 -13 2 -13 11 0 9 13 11 13 20 0 8 -13 10 -13 10 2 0
9 -6 19 -12 21 -7 3 -3 6 9 6 12 1 24 7 27 14 3 6 3 -3 0 -22 -4 -23 -3 -31 5
-27 6 4 11 15 11 25 0 10 9 21 21 24 13 3 19 1 16 -6 -3 -7 -10 -11 -16 -9
-13 3 -14 -8 -1 -28 7 -12 10 -12 10 -1 0 7 6 11 14 8 9 -4 16 3 21 20 4 19
11 24 25 20 11 -3 20 0 20 6 0 6 3 8 6 4 3 -3 3 -24 -1 -46z m-235 -65 c0 -52
-4 -97 -9 -100 -5 -3 -9 35 -10 86 -1 50 -4 95 -7 99 -3 5 2 9 10 9 13 0 16
-16 16 -94z m300 -37 c0 -6 -7 -8 -16 -5 -8 3 -12 2 -9 -4 3 -6 13 -10 22 -10
12 0 14 -8 11 -35 -2 -19 0 -35 5 -35 4 0 5 -5 1 -11 -5 -8 -9 -8 -14 1 -4 6
-10 11 -14 11 -19 -3 -26 0 -26 10 0 6 9 8 20 4 11 -4 20 -2 20 4 0 6 -5 11
-11 11 -6 0 -8 7 -5 16 3 8 2 12 -4 9 -6 -3 -10 -1 -10 5 0 6 -7 10 -16 8 -10
-2 -19 2 -21 9 -4 10 14 17 55 22 6 0 12 -4 12 -10z m-47 -45 c12 -4 11 -10
-8 -30 -12 -13 -29 -24 -36 -24 -11 0 -11 2 1 10 8 5 11 12 7 16 -4 4 -2 13 4
21 13 15 13 15 32 7z m-246 -374 c-1 -11 -5 -20 -9 -20 -4 0 -8 9 -8 20 0 11
4 20 9 20 6 0 9 -9 8 -20z"/>
<path d="M809 983 c-13 -16 -12 -17 4 -4 9 7 17 15 17 17 0 8 -8 3 -21 -13z"/>
<path d="M953 745 c0 -38 2 -53 4 -32 2 20 2 52 0 70 -2 17 -4 1 -4 -38z"/>
<path d="M700 803 c0 -4 5 -15 10 -23 8 -13 10 -13 10 2 0 9 -4 20 -10 23 -5
3 -10 3 -10 -2z"/>
<path d="M523 803 c9 -2 17 -11 17 -18 0 -8 4 -16 9 -19 4 -3 6 6 3 19 -3 18
-10 25 -26 24 -17 -1 -17 -2 -3 -6z"/>
<path d="M525 761 c3 -5 1 -12 -5 -16 -5 -3 -10 -12 -10 -18 0 -7 5 -4 11 6 6
10 15 14 22 10 7 -4 6 0 -2 10 -14 18 -26 23 -16 8z"/>
<path d="M541 714 c0 -11 3 -14 6 -6 3 7 2 16 -1 19 -3 4 -6 -2 -5 -13z"/>
<path d="M795 679 c-123 -7 -115 -6 -115 -17 0 -11 222 -3 233 8 15 14 -5 15
-118 9z"/>
<path d="M422 625 c0 -16 2 -22 5 -12 2 9 2 23 0 30 -3 6 -5 -1 -5 -18z"/>
<path d="M467 629 c4 -13 8 -18 11 -10 2 7 -1 18 -6 23 -8 8 -9 4 -5 -13z"/>
<path d="M336 655 c-3 -8 -1 -15 4 -15 6 0 10 7 10 15 0 8 -2 15 -4 15 -2 0
-6 -7 -10 -15z"/>
<path d="M1031 978 c1 -93 5 -139 12 -142 9 -3 8 -5 0 -5 -9 -1 -13 -21 -13
-65 l0 -63 33 6 32 7 -3 84 c-4 91 -17 246 -23 269 -5 15 63 38 98 33 17 -3
23 -11 26 -40 l4 -37 1 38 c2 35 4 37 34 37 17 0 29 3 25 6 -3 3 -56 7 -117 8
l-111 1 2 -137z m33 -50 c16 -171 16 -192 4 -200 -23 -14 -28 -9 -28 30 0 27
3 33 10 22 5 -8 10 -10 10 -4 0 5 -5 15 -12 22 -8 8 -8 15 0 25 7 8 9 17 5 21
-10 10 -14 146 -4 146 5 0 11 -28 15 -62z"/>
<path d="M1370 1109 c0 -10 27 -19 34 -12 12 12 5 22 -14 20 -11 -1 -20 -4
-20 -8z"/>
<path d="M1585 1109 c-33 -4 -72 -10 -87 -14 -18 -5 -28 -3 -28 4 0 6 -7 11
-15 11 -20 0 -19 -10 3 -27 16 -14 16 -14 -3 -7 -27 10 -65 8 -100 -7 -26 -10
-27 -13 -10 -17 10 -2 21 1 23 7 3 8 9 8 23 1 10 -6 30 -8 44 -4 35 9 31 -5
-6 -18 -16 -6 -28 -12 -26 -14 2 -3 16 0 31 5 26 10 26 10 26 -33 l0 -43 -51
-11 c-71 -17 -69 -18 -69 38 0 41 3 50 18 50 9 0 24 5 32 11 11 8 8 9 -15 4
-39 -9 -68 -40 -61 -65 3 -11 8 -28 11 -39 4 -14 -1 -20 -24 -24 -16 -3 -40
-9 -55 -13 -25 -6 -26 -5 -26 44 0 49 1 50 38 61 l37 10 -40 -4 c-49 -7 -27 9
28 19 34 6 37 9 37 41 0 19 -4 35 -8 35 -4 0 -8 -12 -7 -27 0 -22 -6 -29 -35
-38 -59 -17 -60 -19 -59 -108 1 -83 15 -230 17 -191 2 18 11 23 47 28 66 10
72 31 7 23 -57 -7 -52 -13 -56 70 -1 12 13 20 50 28 l51 11 -5 -41 c-2 -25 0
-45 7 -49 7 -5 9 -29 5 -69 -4 -45 -3 -58 5 -47 6 8 11 31 11 51 0 36 1 37 46
44 26 3 52 9 59 11 9 4 13 -10 14 -50 l0 -56 -37 0 c-47 0 -82 -10 -82 -22 0
-6 25 -7 65 -3 l65 7 0 -45 c0 -25 3 -54 7 -64 6 -16 5 -16 -10 -4 -12 9 -30
12 -60 7 -29 -4 -38 -3 -27 4 9 5 10 10 3 10 -19 0 -43 -12 -43 -22 0 -5 5 -6
10 -3 6 3 10 3 10 -2 0 -4 24 -6 54 -5 l54 4 -4 -32 c-2 -17 1 -41 7 -51 10
-19 7 -20 -45 -18 -55 2 -56 3 -54 31 1 15 8 28 15 28 6 0 15 5 18 10 3 6 -5
10 -19 10 -22 0 -25 -5 -28 -42 -2 -32 -7 -42 -18 -39 -79 20 -121 17 -106 -8
5 -7 68 -11 196 -11 l188 0 -19 37 c-10 21 -19 43 -19 50 0 6 -5 15 -11 19 -7
4 -9 -2 -7 -17 2 -19 -1 -23 -17 -21 -20 2 -20 2 0 -10 11 -7 24 -13 29 -13 5
0 11 -6 14 -12 2 -9 -11 -13 -47 -13 -49 0 -51 1 -51 28 0 15 -3 37 -6 50 -6
21 -3 22 45 22 29 0 50 4 46 9 -3 5 1 16 9 24 8 8 13 23 10 34 -4 14 3 23 23
33 15 8 32 16 37 19 5 2 6 -9 2 -25 -6 -28 -6 -29 7 -6 13 22 15 23 30 7 10
-9 17 -20 17 -25 0 -14 -18 -21 -23 -10 -3 6 -4 5 -3 -2 2 -7 10 -12 19 -12 9
1 14 -3 11 -8 -3 -5 -17 -7 -30 -4 -13 4 -24 2 -24 -4 0 -5 11 -12 24 -16 15
-3 29 -17 34 -32 l9 -27 11 35 10 35 1 -31 c1 -17 -6 -37 -14 -44 -8 -7 -15
-23 -15 -36 0 -29 14 -33 133 -36 l87 -3 0 136 0 136 -27 -5 c-18 -4 -22 -7
-11 -10 9 -2 16 -12 15 -23 -1 -14 -9 -19 -32 -20 -19 -1 -23 -3 -11 -6 15 -4
16 -7 5 -14 -11 -7 -11 -9 3 -9 9 0 20 5 23 10 11 18 26 10 23 -12 -3 -21 -9
-23 -65 -26 l-63 -4 0 60 0 59 46 7 c26 3 59 6 73 6 26 0 26 0 23 70 -2 39 -8
68 -13 64 -5 -3 -9 -13 -9 -24 0 -20 -25 -34 -52 -31 -10 1 -18 -2 -18 -8 0
-6 7 -7 17 -4 11 4 14 3 9 -5 -11 -17 13 -15 31 3 20 20 27 13 19 -18 -5 -22
-13 -25 -63 -29 -32 -3 -59 -4 -61 -3 -1 1 -3 60 -3 130 0 87 4 131 12 136 15
9 110 21 117 15 3 -3 -6 -10 -19 -15 -21 -9 -22 -10 -4 -11 20 -1 20 -1 0 -10
-17 -7 -17 -9 -2 -9 18 -1 19 -3 21 -48 1 -26 -2 -28 -54 -36 -105 -17 -83
-35 24 -21 l46 7 0 122 0 122 -27 -5 c-16 -3 -31 -10 -35 -16 -5 -8 -8 -7 -8
2 0 7 -13 12 -32 12 l-33 0 35 -18 c31 -16 38 -16 58 -4 12 8 22 10 23 6 0 -5
2 -17 4 -26 2 -13 -9 -19 -53 -29 -31 -6 -63 -14 -70 -17 -11 -4 -13 5 -11 41
4 39 1 47 -13 47 -15 0 -16 -4 -8 -26 21 -54 15 -61 -59 -78 -39 -9 -75 -16
-80 -16 -7 0 -11 23 -11 55 0 41 4 56 18 64 9 6 13 10 7 9 -5 -1 -37 -4 -70
-9z m27 -68 l3 -58 -63 -13 c-34 -7 -65 -16 -68 -21 -7 -12 20 -11 75 2 24 5
45 8 47 7 1 -2 6 -26 9 -54 l7 -52 -67 -11 c-37 -7 -69 -11 -70 -9 -2 2 -5 54
-7 117 l-3 114 60 18 c33 9 63 18 67 18 3 1 8 -25 10 -58z m178 -104 l0 -63
-80 -10 -80 -9 0 56 0 57 73 15 c39 8 75 15 80 16 4 0 7 -27 7 -62z m-326 -29
c10 -39 7 -85 -6 -85 -7 0 -37 -3 -65 -7 l-53 -7 1 50 2 50 41 10 c64 14 73
13 80 -11z m286 -180 c-25 -3 -61 -7 -80 -7 l-35 -1 -2 54 -3 55 48 6 c26 4
61 10 77 14 l30 7 5 -60 5 -61 -45 -7z m-130 43 l0 -59 -70 -4 -70 -3 0 52 0
51 63 10 c34 5 65 10 70 11 4 0 7 -26 7 -58z m177 -121 c3 -54 1 -60 -17 -60
-15 0 -22 9 -26 29 -10 47 -41 74 -80 69 -19 -2 -34 -1 -34 4 0 4 28 9 63 11
34 2 69 4 77 5 12 2 16 -11 17 -58z m-167 43 c0 -4 -8 -16 -19 -27 -10 -12
-23 -34 -28 -51 -8 -26 -15 -30 -51 -33 l-42 -3 0 50 0 49 63 10 c34 5 65 10
70 11 4 0 7 -2 7 -6z m170 -183 c0 -64 -13 -80 -24 -29 -11 55 -7 89 9 89 12
0 15 -13 15 -60z m140 51 c0 -5 -9 -11 -20 -14 -18 -5 -30 -29 -12 -26 20 3
33 -2 27 -11 -4 -6 -10 -8 -15 -5 -5 3 -11 1 -15 -5 -3 -5 -11 -10 -16 -10 -6
0 -7 5 -3 12 5 7 3 8 -5 3 -10 -6 -9 -11 3 -24 15 -14 18 -14 26 -1 10 16 23
8 26 -15 2 -12 -11 -15 -62 -15 l-64 0 0 60 0 60 65 0 c36 0 65 -4 65 -9z"/>
<path d="M1540 1019 c0 -5 -4 -7 -10 -4 -5 3 -10 2 -10 -4 0 -20 18 -20 35 -1
16 18 16 20 2 20 -10 0 -17 -5 -17 -11z"/>
<path d="M1538 892 c-12 -5 -15 -11 -8 -21 7 -12 11 -12 24 -2 29 24 20 37
-16 23z"/>
<path d="M1710 918 c0 -4 4 -8 9 -8 6 0 12 4 15 8 3 5 -1 9 -9 9 -8 0 -15 -4
-15 -9z"/>
<path d="M1690 900 c9 -17 30 -20 30 -4 0 3 -4 2 -10 -1 -5 -3 -10 1 -10 9 0
9 -5 16 -10 16 -7 0 -7 -7 0 -20z"/>
<path d="M1382 903 c-12 -2 -20 -8 -17 -13 5 -8 71 3 82 14 7 7 -29 6 -65 -1z"/>
<path d="M1380 861 c0 -16 28 -20 40 -5 10 12 8 14 -14 14 -14 0 -26 -4 -26
-9z"/>
<path d="M1670 789 c0 -5 5 -7 10 -4 6 3 10 8 10 11 0 2 -4 4 -10 4 -5 0 -10
-5 -10 -11z"/>
<path d="M1708 783 c-10 -3 -18 -12 -18 -21 0 -14 2 -14 9 -3 5 7 13 11 19 7
6 -3 13 -2 16 3 8 12 -4 19 -26 14z"/>
<path d="M1548 762 c-10 -2 -18 -7 -18 -12 0 -5 8 -6 18 -3 15 6 15 5 3 -10
-8 -10 -9 -17 -3 -17 10 0 28 39 20 44 -1 1 -11 1 -20 -2z"/>
<path d="M1507 663 c-10 -9 -9 -73 1 -73 4 0 8 18 9 40 1 42 0 44 -10 33z"/>
<path d="M1540 620 c0 -10 4 -22 10 -25 6 -3 7 1 4 10 -4 9 -3 15 2 13 5 -2
11 1 14 6 3 5 -3 10 -12 12 -12 1 -18 -4 -18 -16z"/>
<path d="M1848 543 c12 -2 20 -9 17 -14 -4 -5 1 -9 9 -9 10 0 13 6 10 15 -4 9
-17 14 -33 14 -23 -2 -24 -2 -3 -6z"/>
<path d="M1982 808 c1 -172 4 -288 8 -258 l7 55 1 -57 c1 -33 -2 -58 -8 -58
-12 0 -13 -47 -1 -54 5 -3 11 2 14 13 3 14 11 17 36 13 17 -2 31 -9 31 -16 0
-7 19 -10 55 -8 30 2 55 8 55 14 0 5 -10 6 -21 3 -20 -7 -21 -4 -16 21 l6 29
-13 -29 c-11 -24 -15 -26 -22 -14 -5 9 -29 18 -54 21 -25 3 -46 6 -48 6 -2 1
0 6 3 11 4 6 35 10 71 9 39 -1 69 3 79 11 18 15 45 6 45 -15 0 -8 5 -15 11
-15 5 0 8 -4 5 -9 -9 -14 4 -41 20 -41 19 0 18 45 -3 76 -9 14 -17 39 -18 56
-3 27 -18 47 -36 48 -19 0 -39 -30 -41 -62 -2 -29 -7 -38 -20 -38 -10 0 -18 7
-18 15 0 25 -1 29 -12 43 -12 14 -38 16 -38 2 0 -5 10 -10 23 -10 19 -1 20 -2
6 -13 -9 -7 -14 -18 -11 -25 3 -9 -2 -13 -14 -10 -14 2 -18 11 -17 33 l3 30
-15 -35 -14 -35 5 47 c5 39 3 47 -13 51 -12 3 -13 5 -3 6 12 1 15 10 12 40
l-4 38 119 -1 118 -1 0 -41 c0 -35 3 -41 20 -39 33 4 35 5 35 16 0 5 -4 7 -10
4 -5 -3 -10 3 -10 14 0 12 7 21 15 21 8 0 15 6 15 13 0 8 3 8 8 1 9 -12 86
-19 78 -6 -3 5 6 7 20 4 17 -3 23 -9 20 -19 -3 -8 -6 -19 -6 -25 0 -6 -8 -4
-18 5 -23 21 -39 22 -22 2 11 -13 10 -15 -6 -14 -34 4 -54 -1 -54 -11 0 -6 10
-8 23 -5 39 9 86 13 90 6 2 -3 2 0 1 7 -2 6 1 12 6 12 6 0 10 -7 10 -15 0 -21
37 -19 43 3 2 9 8 26 13 36 5 14 4 17 -4 12 -7 -4 -12 -2 -12 4 0 6 -5 8 -10
5 -6 -4 -8 -14 -6 -23 3 -10 2 -23 -3 -31 -6 -10 -12 -4 -21 23 -6 20 -16 36
-21 36 -6 0 -7 4 -4 10 4 6 -23 9 -72 7 l-78 -2 -12 -45 c-11 -43 -11 -41 -12
53 -1 55 -5 97 -11 97 -5 0 -7 -7 -4 -15 6 -15 3 -16 -61 -19 -16 -1 -36 -5
-42 -9 -7 -5 -13 -4 -13 1 0 9 -22 7 -77 -4 -17 -3 -23 -11 -23 -29 0 -14 -4
-25 -8 -25 -11 0 -2 61 10 78 8 9 4 12 -15 12 -26 0 -26 -1 -30 -87 l-3 -88
-2 85 c-1 47 2 90 6 96 6 10 478 29 910 36 50 1 92 6 92 11 0 5 -9 7 -21 4
-20 -5 -20 -3 -14 86 5 66 11 95 23 105 20 15 35 15 -213 -3 -110 -8 -204 -15
-209 -15 -4 0 -6 6 -3 14 3 8 -1 17 -9 20 -24 9 -26 8 -19 -13 5 -17 0 -20
-37 -25 -68 -8 -500 -37 -504 -33 -6 6 12 62 19 58 7 -3 96 6 140 15 10 1 20
-3 22 -11 16 -51 16 -50 25 -35 5 9 5 19 -1 26 -15 18 2 24 64 23 30 -1 59 1
65 5 5 3 61 8 124 10 62 3 120 7 128 10 8 2 39 7 68 11 48 5 52 4 52 -15 0
-17 4 -20 23 -15 15 4 18 3 8 -3 -8 -6 -9 -12 -3 -16 22 -13 23 17 1 40 -28
30 -32 30 -324 0 -127 -13 -231 -20 -233 -15 -5 12 -32 12 -32 0 0 -4 -24 -11
-52 -14 -29 -3 -60 -7 -68 -9 -9 -2 -16 6 -18 19 -4 29 12 32 153 36 104 3
102 3 -32 5 l-143 2 2 -312z m868 213 c0 -13 -28 -22 -35 -11 -3 4 1 11 7 13
20 8 28 8 28 -2z m71 -23 c1 -18 1 -36 0 -40 0 -5 3 -7 8 -5 5 1 9 -1 10 -5 3
-21 0 -28 -10 -28 -5 0 -7 5 -4 10 3 6 1 10 -4 10 -6 0 -11 -7 -11 -17 0 -14
-2 -15 -17 -1 -10 9 -23 13 -30 11 -7 -3 -9 3 -6 16 3 12 10 21 15 21 6 0 8
14 6 30 -4 26 -1 30 19 30 19 0 23 -5 24 -32z m27 2 c-1 -16 -5 -30 -9 -30 -4
0 -7 14 -7 30 1 17 5 30 10 30 4 0 7 -13 6 -30z m-188 -3 c0 -13 -5 -28 -12
-35 -9 -9 -9 -15 0 -24 9 -9 18 -5 40 19 27 31 82 53 82 33 0 -5 -6 -10 -14
-10 -8 0 -16 -12 -18 -27 -2 -14 -9 -28 -16 -31 -9 -3 -10 2 -2 22 5 14 8 26
6 26 -16 0 -36 -15 -36 -26 0 -8 -13 -17 -30 -20 -18 -4 -30 -13 -30 -23 -1
-15 -1 -15 -10 1 -8 12 -19 15 -52 11 -37 -6 -41 -4 -36 14 3 13 -1 24 -13 32
-11 6 -19 7 -19 2 0 -5 6 -12 13 -14 6 -3 2 -6 -10 -6 -20 -1 -23 -7 -24 -43
-1 -32 -3 -37 -8 -20 -3 13 -17 30 -31 38 l-25 15 30 -6 c17 -3 25 -2 20 2
-18 14 -11 37 15 50 14 7 19 13 13 13 -7 0 -13 5 -13 10 0 14 64 12 78 -2 10
-10 15 -10 20 -1 4 6 21 13 37 16 17 2 33 5 38 6 4 0 7 -9 7 -22z m37 6 c-4
-23 -29 -63 -40 -63 -4 0 -2 10 5 23 7 12 13 27 14 32 3 22 4 25 14 25 5 0 9
-8 7 -17z m-229 -10 c-2 -10 -9 -19 -16 -19 -23 -3 -24 -4 -14 -17 8 -10 6
-13 -10 -14 -11 -1 -27 -11 -34 -22 -8 -11 -21 -18 -28 -15 -8 3 -17 1 -21 -5
-3 -6 -30 -11 -58 -11 -37 0 -48 3 -37 10 8 5 25 10 38 10 26 0 40 26 23 43
-8 8 -11 5 -11 -11 0 -16 -6 -22 -22 -22 -13 0 -32 -3 -44 -6 -19 -5 -21 -2
-19 33 1 33 4 38 24 36 14 -2 20 1 15 8 -5 9 4 10 32 4 21 -4 52 -9 67 -11 37
-5 49 -13 40 -27 -4 -7 0 -6 10 2 9 7 17 19 17 26 0 8 6 16 13 18 25 11 38 7
35 -10z m-386 -28 c-3 -18 0 -25 11 -25 9 0 19 -5 23 -12 5 -7 0 -9 -14 -6
-16 4 -19 2 -15 -10 4 -9 2 -13 -4 -9 -6 4 -13 2 -15 -3 -2 -7 -12 -8 -27 -2
-16 6 -20 11 -13 16 7 4 12 12 12 19 0 6 -8 0 -17 -13 -9 -14 -21 -28 -26 -31
-6 -4 -7 -17 -4 -29 3 -13 1 -20 -6 -17 -12 4 -17 46 -6 53 5 3 6 17 3 32 -8
40 5 49 92 61 7 0 9 -9 6 -24z m-125 -57 c-3 -40 -6 -74 -6 -75 -1 -2 -10 -3
-20 -3 -18 0 -19 6 -16 68 2 37 4 70 4 75 1 4 10 7 22 7 20 0 21 -4 16 -72z
m218 64 c14 -10 18 -42 6 -42 -6 0 -8 -6 -5 -14 7 -19 -25 -34 -56 -26 -21 5
-22 7 -7 13 21 8 22 36 2 43 -14 6 -13 8 2 20 20 15 43 17 58 6z m335 -52 c0
-5 -4 -10 -10 -10 -5 0 -10 5 -10 10 0 6 5 10 10 10 6 0 10 -4 10 -10z m190
-24 c0 -8 -4 -18 -10 -21 -5 -3 -10 3 -10 14 0 12 5 21 10 21 6 0 10 -6 10
-14z m67 -6 c-3 -13 0 -20 9 -20 8 0 14 -4 14 -10 0 -16 -27 -11 -34 6 -9 24
-7 44 5 44 6 0 9 -9 6 -20z m20 -2 c-3 -8 -6 -5 -6 6 -1 11 2 17 5 13 3 -3 4
-12 1 -19z m53 2 c0 -11 -4 -20 -10 -20 -5 0 -10 9 -10 20 0 11 5 20 10 20 6
0 10 -9 10 -20z m-330 0 c0 -5 6 -7 13 -4 8 3 14 -2 14 -9 0 -9 -9 -14 -24
-13 -15 1 -23 7 -23 19 0 9 5 17 10 17 6 0 10 -4 10 -10z m100 -5 c0 -8 -4
-15 -10 -15 -5 0 -10 7 -10 15 0 8 5 15 10 15 6 0 10 -7 10 -15z m50 0 c0 -8
-4 -15 -8 -15 -5 0 -9 7 -9 15 0 8 4 15 9 15 4 0 8 -7 8 -15z m80 2 c0 -8 -7
-14 -15 -14 -8 0 -15 6 -15 14 0 7 7 13 15 13 8 0 15 -6 15 -13z m-487 -12
c19 4 24 -11 5 -18 -22 -7 -48 4 -48 20 0 11 4 13 13 6 6 -6 20 -9 30 -8z
m125 -6 c3 -8 1 -11 -3 -7 -4 4 -17 3 -29 -3 -19 -9 -19 -9 -4 4 10 8 14 18
10 22 -4 4 -1 6 7 3 8 -2 17 -11 19 -19z m62 9 c0 -13 -19 -18 -26 -7 -4 8 -9
7 -15 -2 -7 -11 -9 -11 -9 2 0 12 8 16 25 15 14 0 25 -4 25 -8z m17 -10 c-3
-8 -6 -5 -6 6 -1 11 2 17 5 13 3 -3 4 -12 1 -19z m123 12 c0 -5 -7 -10 -15
-10 -8 0 -15 5 -15 10 0 6 7 10 15 10 8 0 15 -4 15 -10z m-512 -17 c2 -7 -3
-13 -12 -13 -9 0 -16 6 -17 13 0 10 -2 10 -6 0 -7 -18 -20 -16 -27 3 -5 12 1
15 26 12 17 -2 33 -9 36 -15z m63 -6 c-13 -13 -26 -3 -16 12 3 6 11 8 17 5 6
-4 6 -10 -1 -17z m57 14 c11 -6 10 -10 -4 -15 -9 -3 -19 -4 -22 -1 -3 3 1 5 9
5 11 0 11 2 -1 10 -8 5 -10 10 -5 10 6 0 16 -4 23 -9z m-88 -10 c0 -6 -4 -12
-8 -15 -5 -3 -9 1 -9 9 0 8 4 15 9 15 4 0 8 -4 8 -9z m647 -7 c-3 -3 -12 -4
-19 -1 -8 3 -5 6 6 6 11 1 17 -2 13 -5z m-635 -119 c-3 -18 -11 -25 -28 -25
-27 0 -33 20 -6 21 12 0 13 2 3 6 -8 3 -21 -3 -29 -13 -12 -16 -14 -16 -9 -2
3 10 2 20 -3 23 -6 4 -10 -3 -10 -15 0 -30 -32 -22 -37 9 -3 22 -1 23 34 18
21 -3 47 -2 58 3 27 10 33 5 27 -25z m-132 0 c0 -28 -17 -34 -27 -9 -3 9 0 20
8 25 19 12 19 12 19 -16z m170 0 c0 -16 -6 -25 -15 -25 -15 0 -21 31 -8 43 13
14 23 6 23 -18z m-43 -161 c3 -8 1 -20 -6 -27 -8 -8 -11 -7 -11 4 -1 10 -5 9
-15 -5 -8 -11 -18 -17 -21 -13 -4 3 1 13 10 22 9 9 14 21 11 26 -4 5 1 9 10 9
8 0 18 -7 22 -16z m-110 -46 c-3 -8 -6 -5 -6 6 -1 11 2 17 5 13 3 -3 4 -12 1
-19z"/>
<path d="M2665 969 c-4 -6 -5 -12 -2 -15 2 -3 7 2 10 11 7 17 1 20 -8 4z"/>
<path d="M2645 930 c-3 -5 -1 -10 4 -10 6 0 11 5 11 10 0 6 -2 10 -4 10 -3 0
-8 -4 -11 -10z"/>
<path d="M2447 973 c-4 -3 -7 -18 -7 -31 0 -31 9 -24 16 12 4 27 2 31 -9 19z"/>
<path d="M2360 948 c0 -4 7 -8 15 -8 8 0 15 4 15 8 0 5 -7 9 -15 9 -8 0 -15
-4 -15 -9z"/>
<path d="M2150 929 c0 -5 5 -7 10 -4 6 3 10 8 10 11 0 2 -4 4 -10 4 -5 0 -10
-5 -10 -11z"/>
<path d="M2828 1113 c17 -2 47 -2 65 0 17 2 3 4 -33 4 -36 0 -50 -2 -32 -4z"/>
<path d="M0 1106 c0 -2 11 -6 25 -8 14 -3 25 -1 25 3 0 5 -11 9 -25 9 -14 0
-25 -2 -25 -4z"/>
<path d="M70 1103 c0 -5 36 -8 80 -8 44 0 80 3 80 8 0 4 -36 7 -80 7 -44 0
-80 -3 -80 -7z"/>
<path d="M240 1093 c0 -11 3 -14 8 -7 5 8 94 12 286 13 154 1 282 3 284 6 3 3
-126 5 -286 5 -272 0 -292 -1 -292 -17z"/>
<path d="M1332 1098 c2 -6 10 -14 16 -16 7 -2 10 2 6 12 -7 18 -28 22 -22 4z"/>
<path d="M1702 1099 c18 -7 33 -7 45 0 14 8 9 10 -27 10 -42 -1 -43 -1 -18
-10z"/>
<path d="M1253 1083 c-20 -8 -15 -22 7 -20 11 1 20 7 20 14 0 14 -6 15 -27 6z"/>
<path d="M1110 1061 c-5 -11 -10 -44 -9 -73 0 -29 3 -47 6 -40 2 6 9 9 15 6 7
-4 7 0 0 12 -5 11 -8 35 -7 54 3 49 3 50 18 50 9 0 14 -12 15 -32 0 -18 8 -38
18 -45 10 -7 15 -16 11 -20 -4 -3 -17 2 -29 13 -18 15 -20 16 -9 2 7 -10 10
-18 5 -18 -4 0 1 -7 12 -16 18 -15 18 -15 0 -10 -14 5 -17 2 -12 -10 4 -12 1
-14 -14 -9 -11 4 -20 2 -20 -4 0 -16 36 -13 54 5 25 24 30 60 12 86 -9 12 -16
33 -16 45 0 29 -35 31 -50 4z"/>
<path d="M1705 1060 c-3 -5 -13 -6 -23 -3 -16 6 -16 5 1 -11 14 -14 20 -16 32
-6 8 7 15 16 15 21 0 12 -17 11 -25 -1z"/>
<path d="M2470 1050 c0 -24 15 -27 24 -4 9 22 8 24 -9 24 -8 0 -15 -9 -15 -20z"/>
<path d="M2282 1039 c2 -7 10 -15 17 -17 8 -3 12 1 9 9 -2 7 -10 15 -17 17 -8
3 -12 -1 -9 -9z"/>
<path d="M2010 1022 c0 -5 7 -9 15 -9 8 0 12 4 9 9 -3 4 -9 8 -15 8 -5 0 -9
-4 -9 -8z"/>
<path d="M1374 989 c-5 -9 25 -20 37 -13 5 3 9 9 9 14 0 10 -39 9 -46 -1z"/>
<path d="M1240 979 c0 -5 5 -7 10 -4 6 3 10 8 10 11 0 2 -4 4 -10 4 -5 0 -10
-5 -10 -11z"/>
<path d="M1262 963 c-15 -6 -6 -23 14 -23 8 0 14 7 14 15 0 15 -6 17 -28 8z"/>
<path d="M1897 943 c-11 -11 -17 -13 -17 -5 0 7 -5 12 -12 12 -8 0 -6 -6 5
-17 16 -16 18 -16 34 0 9 9 15 19 12 22 -3 2 -13 -3 -22 -12z"/>
<path d="M2980 910 c0 -5 5 -10 11 -10 5 0 7 5 4 10 -3 6 -8 10 -11 10 -2 0
-4 -4 -4 -10z"/>
<path d="M1132 887 c-7 -8 -15 -34 -18 -58 -8 -55 7 -70 51 -55 42 15 45 52 7
95 -24 27 -30 30 -40 18z m29 -40 c0 -27 2 -29 9 -12 7 18 8 19 15 3 9 -22 -1
-52 -14 -44 -5 4 -16 -1 -25 -9 -17 -18 -22 -11 -23 30 0 17 1 22 4 13 9 -34
19 -18 15 23 -3 29 -1 40 7 35 6 -4 11 -22 12 -39z"/>
<path d="M260 868 c0 -9 5 -20 10 -23 13 -8 13 5 0 25 -8 13 -10 13 -10 -2z"/>
<path d="M100 849 c5 -9 6 -20 2 -25 -4 -5 2 -1 13 8 17 14 22 14 33 2 11 -12
17 -12 28 -3 7 6 11 15 8 20 -3 5 2 6 10 3 9 -3 16 -1 16 4 0 7 -23 10 -59 9
-52 -1 -58 -3 -51 -18z m68 -14 c-3 -3 -9 2 -12 12 -6 14 -5 15 5 6 7 -7 10
-15 7 -18z"/>
<path d="M241 844 c0 -11 3 -14 6 -6 3 7 2 16 -1 19 -3 4 -6 -2 -5 -13z"/>
<path d="M1260 845 c0 -17 2 -18 24 -9 18 7 12 24 -10 24 -8 0 -14 -7 -14 -15z"/>
<path d="M2865 820 c-2 -4 16 -7 41 -9 24 -1 44 2 44 6 0 9 -80 12 -85 3z"/>
<path d="M2960 826 c0 -9 30 -14 35 -6 4 6 -3 10 -14 10 -12 0 -21 -2 -21 -4z"/>
<path d="M2380 811 l-95 -6 6 -45 c3 -25 7 -35 7 -22 1 13 11 33 22 44 17 18
22 20 33 8 10 -10 9 -12 -5 -7 -10 4 -18 2 -18 -3 0 -6 16 -10 35 -10 29 0 35
-4 35 -22 0 -17 3 -19 12 -10 16 16 28 15 28 -1 0 -13 46 -16 55 -4 3 4 2 5
-1 2 -4 -2 -20 3 -36 11 -16 8 -33 12 -38 9 -6 -3 -10 -1 -10 4 0 6 5 11 10
11 6 0 9 5 8 12 -2 7 14 12 40 14 33 3 42 0 42 -12 0 -12 -7 -14 -30 -9 -19 4
-30 3 -30 -4 0 -11 27 -14 118 -11 50 1 52 0 52 -24 0 -17 -5 -26 -16 -26 -13
0 -14 3 -5 14 7 8 8 16 4 19 -13 6 -93 -4 -93 -13 0 -4 16 -6 35 -3 20 2 35
-1 35 -7 0 -5 -26 -11 -57 -11 l-58 -2 44 -7 c25 -4 60 -5 79 -3 35 4 35 4 29
-32 -3 -21 -2 -33 4 -30 5 4 9 42 9 86 0 52 -4 78 -10 74 -6 -4 -8 -10 -5 -15
3 -4 -16 -7 -42 -6 -50 1 -70 20 -28 28 14 3 25 1 25 -6 0 -8 2 -8 8 0 4 7 18
14 32 17 33 6 -111 5 -230 -2z m20 -19 c0 -5 -7 -9 -15 -9 -8 0 -12 4 -9 9 3
4 9 8 15 8 5 0 9 -4 9 -8z"/>
<path d="M2641 718 c-2 -66 1 -98 8 -94 5 4 9 42 8 88 0 55 3 83 11 86 18 6
14 18 -6 19 -15 1 -18 -10 -21 -99z"/>
<path d="M2690 812 c0 -7 123 -5 145 3 6 2 -25 4 -67 4 -43 1 -78 -3 -78 -7z"/>
<path d="M2113 804 c7 -7 117 -7 125 1 3 3 -25 5 -63 5 -38 0 -66 -3 -62 -6z"/>
<path d="M351 778 c-1 -16 4 -28 9 -28 12 0 12 8 0 35 -8 18 -9 17 -9 -7z"/>
<path d="M2925 789 c-69 -13 -70 -13 -165 -4 -47 4 -82 5 -79 1 3 -3 24 -7 47
-8 39 -1 42 -3 42 -29 0 -27 -2 -28 -52 -31 -31 -2 -51 -7 -48 -13 3 -5 10 -8
15 -7 6 2 28 5 50 7 36 3 40 6 43 32 3 28 5 29 58 29 43 0 54 -2 49 -14 -3 -7
-5 -19 -5 -26 0 -7 -15 -11 -40 -10 -23 0 -44 -4 -47 -9 -4 -6 23 -7 76 -3 60
6 86 4 97 -5 13 -10 17 -10 24 2 8 11 0 15 -40 17 -48 3 -50 4 -50 33 0 30 1
30 42 28 26 -2 43 1 46 9 2 6 0 11 -5 11 -4 -1 -30 -5 -58 -10z"/>
<path d="M213 750 c0 -25 2 -35 4 -22 2 12 2 32 0 45 -2 12 -4 2 -4 -23z"/>
<path d="M1360 760 c0 -5 5 -10 11 -10 5 0 7 5 4 10 -3 6 -8 10 -11 10 -2 0
-4 -4 -4 -10z"/>
<path d="M2920 760 c-18 -12 -2 -12 25 0 13 6 15 9 5 9 -8 0 -22 -4 -30 -9z"/>
<path d="M1157 743 c-4 -3 -7 -11 -7 -17 0 -6 4 -5 9 3 7 10 10 10 16 1 4 -7
3 -15 -3 -19 -6 -4 -4 -12 6 -21 14 -13 15 -13 10 1 -3 9 -2 22 2 30 12 19
-17 38 -33 22z"/>
<path d="M1390 738 c0 -4 9 -8 20 -8 11 0 20 4 20 9 0 6 -9 9 -20 8 -11 -1
-20 -5 -20 -9z"/>
<path d="M1275 729 c-11 -4 -18 -8 -15 -9 23 -7 41 -7 45 0 8 13 -8 18 -30 9z"/>
<path d="M1134 698 c1 -20 5 -40 9 -45 5 -4 5 1 1 11 -5 13 -4 17 4 12 6 -3
14 -1 18 5 4 7 3 9 -4 5 -6 -3 -15 6 -20 21 -10 27 -10 27 -8 -9z"/>
<path d="M1100 693 c0 -10 5 -25 10 -33 8 -12 10 -9 10 12 0 15 -4 30 -10 33
-5 3 -10 -2 -10 -12z"/>
<path d="M1242 688 c-18 -18 -15 -37 6 -33 9 2 35 7 57 11 33 5 37 8 20 14
-11 5 -29 8 -40 8 -16 0 -15 -2 5 -8 24 -8 23 -8 -7 -9 -25 -1 -31 2 -27 14 7
18 2 19 -14 3z"/>
<path d="M1036 678 c3 -5 10 -6 15 -3 13 9 11 12 -6 12 -8 0 -12 -4 -9 -9z"/>
<path d="M1070 680 c0 -5 5 -10 10 -10 6 0 10 5 10 10 0 6 -4 10 -10 10 -5 0
-10 -4 -10 -10z"/>
<path d="M2115 680 c-3 -6 1 -7 10 -4 11 5 14 2 9 -10 -3 -9 -1 -16 4 -16 6 0
13 8 15 18 3 9 5 1 6 -18 1 -24 4 -31 10 -21 5 7 6 22 3 33 -4 15 -1 19 9 16
8 -3 13 -13 11 -23 -2 -10 1 -14 7 -10 16 9 13 32 -5 39 -24 9 -72 7 -79 -4z"/>
<path d="M2560 662 c0 -35 19 -67 21 -37 1 11 1 26 0 32 -1 8 5 10 15 6 11 -4
15 -2 11 4 -4 6 -16 13 -27 16 -16 4 -20 0 -20 -21z"/>
<path d="M2532 655 c-16 -34 -15 -45 2 -45 10 0 14 11 13 35 -1 19 -2 35 -2
35 -1 0 -7 -11 -13 -25z"/>
<path d="M2690 650 c0 -33 2 -35 34 -37 29 -1 35 2 39 23 2 13 1 24 -4 24 -4
0 -10 -10 -12 -22 l-4 -23 -2 23 c0 13 -5 20 -11 17 -5 -3 -10 -1 -10 4 0 14
53 14 67 0 7 -7 12 -7 15 3 7 17 -77 24 -87 7 -6 -8 -10 -7 -16 2 -6 10 -9 2
-9 -21z"/>
<path d="M1832 650 c0 -14 2 -19 5 -12 2 6 2 18 0 25 -3 6 -5 1 -5 -13z"/>
<path d="M2317 663 c-2 -5 -1 -19 4 -33 7 -23 7 -23 8 8 1 31 -3 40 -12 25z"/>
<path d="M2826 654 c-9 -8 -13 -21 -9 -27 4 -6 9 -2 14 11 8 22 39 31 39 12 0
-5 -5 -10 -11 -10 -6 0 -9 -7 -5 -15 3 -8 2 -15 -2 -15 -4 -1 -24 -3 -44 -6
-34 -5 -36 -4 -32 18 4 21 3 21 -4 3 -5 -11 -22 -23 -38 -26 -23 -5 -18 -7 22
-8 71 -1 114 8 114 26 0 10 6 13 16 9 10 -4 26 1 37 11 20 17 20 17 14 0 -4
-10 -7 -25 -7 -33 0 -8 -6 -11 -15 -8 -8 4 -15 2 -15 -4 0 -23 31 -21 42 3 7
16 19 25 35 25 14 0 23 6 23 15 0 17 -9 19 -30 6 -10 -7 -18 -4 -28 10 -17 24
-93 27 -116 3z"/>
<path d="M1158 644 c-16 -8 -28 -17 -28 -20 0 -2 9 0 19 6 33 17 38 11 8 -9
-22 -14 -25 -20 -13 -24 17 -7 49 30 40 45 -3 4 0 8 6 8 7 0 9 -7 6 -16 -4
-10 -1 -14 6 -12 18 6 16 32 -2 35 -8 1 -27 -4 -42 -13z"/>
<path d="M1330 631 c0 -16 -3 -37 -7 -47 -4 -12 -2 -15 8 -12 15 5 23 88 8 88
-5 0 -9 -13 -9 -29z"/>
<path d="M1371 628 c1 -22 3 -26 6 -13 3 11 10 26 15 33 8 9 6 12 -6 12 -12 0
-16 -9 -15 -32z"/>
<path d="M2070 640 c0 -11 4 -20 8 -20 4 0 8 9 8 20 0 11 -4 20 -8 20 -4 0 -8
-9 -8 -20z"/>
<path d="M2345 650 c3 -5 10 -10 16 -10 5 0 9 5 9 10 0 6 -7 10 -16 10 -8 0
-12 -4 -9 -10z"/>
<path d="M1063 643 c-18 -2 -33 -8 -33 -12 0 -4 16 -5 35 -3 19 2 35 8 35 13
0 5 -1 8 -2 7 -2 0 -18 -3 -35 -5z"/>
<path d="M1252 618 c-1 -20 -5 -43 -8 -52 -5 -13 2 -16 45 -16 l51 0 0 -39 c0
-22 5 -43 10 -46 13 -8 13 51 0 76 -8 14 -21 19 -50 19 -22 0 -40 4 -40 9 0 4
12 6 28 3 15 -3 23 -1 19 4 -5 5 -13 10 -18 10 -5 1 -13 2 -18 3 -6 0 -12 16
-14 34 l-4 32 -1 -37z"/>
<path d="M1623 639 c-12 -12 -5 -51 8 -43 5 3 7 10 3 15 -3 5 0 16 6 24 14 17
-1 20 -17 4z"/>
<path d="M2101 634 c0 -11 3 -14 6 -6 3 7 2 16 -1 19 -3 4 -6 -2 -5 -13z"/>
<path d="M1231 624 c0 -11 3 -14 6 -6 3 7 2 16 -1 19 -3 4 -6 -2 -5 -13z"/>
<path d="M2123 625 c0 -8 4 -15 9 -15 4 0 8 4 8 9 0 6 -4 12 -8 15 -5 3 -9 -1
-9 -9z"/>
<path d="M2791 624 c0 -11 3 -14 6 -6 3 7 2 16 -1 19 -3 4 -6 -2 -5 -13z"/>
<path d="M1401 609 c5 -11 12 -19 15 -19 3 0 2 5 -1 10 -3 6 1 10 9 10 9 0 16
4 16 9 0 5 -11 9 -25 9 -21 0 -23 -3 -14 -19z"/>
<path d="M1043 613 c-7 -2 -13 -16 -13 -29 0 -15 4 -23 10 -19 6 4 8 10 5 15
-3 5 -1 11 5 15 5 3 10 -1 10 -9 0 -9 5 -16 10 -16 6 0 10 7 10 15 0 8 6 15
13 15 8 0 7 4 -3 10 -16 10 -28 11 -47 3z"/>
<path d="M1274 613 c10 -11 36 -12 36 -2 0 5 -10 9 -22 9 -12 0 -18 -3 -14 -7z"/>
<path d="M2593 598 c-4 -7 -10 -31 -13 -53 -5 -36 -8 -40 -35 -42 -17 0 -36
-2 -43 -2 -6 -1 -22 -12 -34 -26 -11 -13 -25 -22 -30 -19 -4 3 -8 0 -8 -5 0
-6 7 -11 15 -11 8 0 15 5 15 10 0 6 16 10 35 10 39 0 48 16 13 23 -13 3 -5 4
16 4 29 -2 40 -6 42 -20 2 -13 -1 -15 -9 -8 -8 6 -19 5 -31 -5 -16 -11 -17
-14 -4 -14 9 0 19 6 21 13 4 10 6 10 6 0 1 -9 21 -13 64 -13 99 0 107 -9 107
-134 0 -66 -4 -106 -12 -114 -8 -8 -53 -12 -135 -12 l-123 0 0 -44 c0 -24 -3
-65 -6 -92 -4 -41 -3 -46 7 -30 6 11 12 32 11 48 0 15 4 28 9 28 6 0 7 -4 4
-10 -4 -6 1 -7 11 -3 11 4 13 8 6 11 -27 9 -9 22 31 23 23 1 33 3 22 6 -11 2
-30 6 -42 9 -13 2 -23 10 -23 16 0 6 3 8 6 5 4 -3 15 -2 25 4 15 7 21 6 25 -6
3 -8 11 -15 16 -15 6 0 8 7 4 15 -3 9 0 15 9 15 8 0 15 -7 15 -15 0 -8 4 -15
10 -15 5 0 7 7 4 15 -4 9 0 15 10 15 19 0 20 -13 5 -42 -12 -22 -18 -118 -8
-118 8 0 19 53 19 92 0 25 3 29 20 25 13 -3 20 0 20 8 0 7 6 16 13 18 8 4 7 6
-3 6 -9 1 -21 -4 -28 -11 -9 -9 -12 -8 -12 4 0 33 57 38 70 6 l9 -23 0 23 c1
12 6 22 11 22 6 0 9 3 9 7 -3 20 2 26 11 13 7 -11 10 -7 10 18 0 17 -4 32 -10
32 -5 0 -10 5 -10 10 0 6 9 10 20 10 13 0 20 -7 20 -20 0 -11 5 -20 11 -20 5
0 8 4 4 9 -3 6 30 9 80 8 l85 -2 0 -45 0 -45 -66 5 c-41 4 -68 11 -74 20 -15
24 -12 40 8 34 14 -5 15 -4 2 5 -11 8 -18 7 -27 -6 -16 -20 -17 -33 -3 -33 6
0 10 -6 10 -14 0 -16 97 -33 125 -22 12 4 15 -2 15 -30 l0 -35 -42 6 c-40 5
-42 4 -19 -9 13 -7 32 -11 43 -8 12 3 18 -1 18 -13 0 -17 -18 -17 -64 1 -9 3
-16 2 -16 -4 0 -6 18 -13 40 -17 22 -4 40 -12 40 -18 0 -7 4 -6 9 2 5 8 7 20
4 28 -3 7 -1 13 5 13 5 0 12 20 14 45 2 25 0 45 -4 45 -5 0 -8 11 -8 25 0 23
8 29 35 26 6 0 0 6 -12 15 -15 11 -23 27 -23 46 0 23 -3 28 -12 21 -7 -6 -31
-13 -53 -17 -39 -6 -39 -6 -15 9 25 15 25 15 -13 12 -22 -2 -42 -9 -47 -16 -9
-16 -50 2 -50 22 0 7 -4 6 -10 -3 -7 -11 -10 -11 -10 -2 0 7 -4 10 -10 7 -5
-3 -10 1 -10 9 0 26 18 27 38 1 26 -32 32 -32 32 4 0 34 -29 108 -30 76 0 -12
5 -26 12 -33 9 -9 9 -12 -1 -12 -7 0 -9 -4 -6 -10 3 -5 4 -10 1 -10 -6 0 -36
67 -36 81 0 5 33 9 73 9 62 0 74 3 85 20 7 12 18 18 25 13 7 -4 7 0 -2 10 -13
16 -15 16 -25 -4 -6 -12 -21 -24 -33 -25 -20 -3 -21 0 -18 54 2 31 1 49 -2 39
-2 -9 -9 -14 -14 -11 -7 4 -8 -7 -4 -30 5 -25 4 -36 -4 -36 -7 0 -9 -4 -6 -10
3 -5 -3 -10 -15 -10 -21 0 -55 26 -55 42 0 4 -4 8 -9 7 -16 -1 -46 56 -46 88
0 17 -7 39 -16 47 -18 19 -70 21 -81 4z m71 -35 c3 -16 8 -45 12 -65 4 -26 10
-35 20 -31 8 3 14 0 14 -5 0 -14 -112 -11 -122 3 -4 5 -3 14 2 20 5 6 10 28
12 50 2 31 7 40 20 39 10 -1 15 2 12 7 -3 5 1 9 10 9 8 0 17 -12 20 -27z m69
-123 c-3 -12 -8 -19 -11 -16 -5 6 5 36 12 36 2 0 2 -9 -1 -20z m17 -101 c0 -6
-4 -7 -10 -4 -5 3 -10 11 -10 16 0 6 5 7 10 4 6 -3 10 -11 10 -16z m-283 -216
c-3 -10 -5 -2 -5 17 0 19 2 27 5 18 2 -10 2 -26 0 -35z m490 -20 c-3 -10 -5
-4 -5 12 0 17 2 24 5 18 2 -7 2 -21 0 -30z"/>
<path d="M1110 554 c0 -28 3 -66 6 -83 7 -31 27 -41 40 -19 4 6 3 8 -3 5 -6
-4 -8 3 -6 18 3 13 -2 33 -10 45 -9 12 -13 28 -10 36 2 7 0 21 -6 31 -8 14
-10 8 -11 -33z"/>
<path d="M2271 551 c1 -28 6 -51 10 -51 4 0 6 9 4 20 -2 11 0 22 5 25 5 3 7
12 3 20 -3 10 1 15 11 15 14 0 16 -8 12 -40 l-5 -40 39 0 c21 0 49 -4 62 -9
23 -8 23 -7 20 45 -4 51 -5 54 -30 54 -15 0 -51 3 -80 7 l-52 6 1 -52z m137
16 c7 0 10 -7 7 -14 -3 -8 -5 -22 -5 -31 0 -14 -2 -14 -9 -3 -7 11 -9 11 -14
0 -4 -10 -6 -9 -6 4 -1 20 -37 24 -44 5 -3 -7 -6 -1 -6 14 -1 29 13 39 44 31
11 -4 26 -6 33 -6z"/>
<path d="M2441 578 c1 -17 3 -18 6 -6 3 14 18 18 71 21 l67 3 -72 2 c-70 2
-73 1 -72 -20z"/>
<path d="M2873 589 c-6 -6 -8 -19 -6 -30 4 -14 11 -18 27 -14 14 4 17 3 8 -3
-9 -6 -11 -18 -6 -38 l7 -29 14 33 c15 36 5 62 -23 62 -8 0 -11 6 -8 15 7 18
2 19 -13 4z"/>
<path d="M810 575 c0 -8 2 -15 4 -15 2 0 6 7 10 15 3 8 1 15 -4 15 -6 0 -10
-7 -10 -15z"/>
<path d="M1614 565 c3 -8 0 -16 -7 -19 -7 -2 -7 -5 -1 -5 5 -1 18 5 29 12 17
13 17 14 -4 20 -16 4 -21 2 -17 -8z"/>
<path d="M779 568 c-6 -25 -6 -39 1 -43 4 -3 10 4 13 15 3 11 1 23 -4 26 -5 3
-9 4 -10 2z"/>
<path d="M2790 554 c-19 -7 -29 -13 -22 -13 9 -1 10 -6 2 -20 -5 -11 -10 -26
-10 -33 1 -7 7 -1 16 14 8 15 28 35 44 43 52 27 33 33 -30 9z"/>
<path d="M735 550 c-3 -5 1 -10 9 -10 9 0 16 5 16 10 0 6 -4 10 -9 10 -6 0
-13 -4 -16 -10z"/>
<path d="M1053 553 c-19 -4 -23 -11 -22 -41 1 -36 1 -37 8 -7 5 21 12 29 24
27 10 -2 17 3 17 13 0 8 -1 14 -2 14 -2 -1 -13 -4 -25 -6z"/>
<path d="M809 540 c-3 -8 -3 -28 1 -45 3 -19 8 -24 11 -15 3 8 3 29 -1 45 -3
19 -8 24 -11 15z"/>
<path d="M846 541 c-8 -12 10 -24 24 -16 6 4 7 -1 4 -12 -5 -16 -4 -16 8 -2 7
9 19 14 27 11 8 -3 12 1 9 9 -5 16 -63 25 -72 10z"/>
<path d="M1145 539 c-4 -6 -4 -13 -1 -16 3 -4 6 -1 6 6 0 8 7 11 15 7 8 -3 15
-1 15 4 0 13 -27 13 -35 -1z"/>
<path d="M1663 543 c9 -2 23 -2 30 0 6 3 -1 5 -18 5 -16 0 -22 -2 -12 -5z"/>
<path d="M1250 519 c0 -11 5 -17 10 -14 6 4 7 11 4 17 -4 7 -2 8 4 4 7 -4 12
-2 12 3 0 6 -7 11 -15 11 -8 0 -15 -9 -15 -21z"/>
<path d="M2825 529 c-4 -6 -5 -12 -2 -15 2 -3 7 2 10 11 7 17 1 20 -8 4z"/>
<path d="M2965 525 c4 -11 9 -42 10 -70 2 -27 8 -51 13 -53 14 -4 4 86 -14
116 -8 15 -12 18 -9 7z"/>
<path d="M215 520 c3 -5 0 -10 -7 -10 -9 0 -9 -3 2 -10 9 -6 11 -10 3 -10 -7
0 -10 -7 -6 -17 5 -12 3 -14 -7 -8 -7 5 -11 4 -8 -1 3 -5 8 -18 12 -29 7 -20
7 -20 19 0 21 36 18 95 -4 95 -6 0 -7 -4 -4 -10z"/>
<path d="M1052 510 c0 -14 2 -19 5 -12 2 6 2 18 0 25 -3 6 -5 1 -5 -13z"/>
<path d="M1180 521 c-16 -6 -25 -31 -12 -31 4 0 13 5 20 12 6 6 15 8 19 4 4
-4 2 -10 -4 -14 -17 -11 -4 -52 16 -52 13 0 13 2 2 9 -9 6 -11 18 -7 34 7 28
-11 48 -34 38z"/>
<path d="M1605 520 c4 -6 11 -8 16 -5 14 9 11 15 -7 15 -8 0 -12 -5 -9 -10z"/>
<path d="M1649 515 c-1 -5 -1 -16 0 -22 1 -7 -2 -13 -8 -13 -5 0 -7 -8 -4 -18
3 -14 14 -19 41 -19 l37 -1 -33 10 c-26 7 -31 12 -23 22 7 9 7 16 -1 24 -9 9
-8 12 4 12 9 0 19 4 22 8 2 4 -4 8 -15 8 -10 0 -20 -5 -20 -11z"/>
<path d="M2940 510 c0 -11 4 -20 9 -20 5 0 7 9 4 20 -3 11 -7 20 -9 20 -2 0
-4 -9 -4 -20z"/>
<path d="M613 499 c-4 -13 -8 -16 -13 -9 -4 6 -7 -3 -7 -20 0 -42 11 -38 24
10 5 22 8 40 6 40 -3 0 -7 -9 -10 -21z"/>
<path d="M833 495 c0 -8 4 -12 9 -9 4 3 8 9 8 15 0 5 -4 9 -8 9 -5 0 -9 -7 -9
-15z"/>
<path d="M1280 500 c0 -5 9 -10 19 -10 11 0 23 5 26 10 4 6 -5 10 -19 10 -14
0 -26 -4 -26 -10z"/>
<path d="M1400 498 c0 -12 38 -10 45 2 4 6 -5 9 -19 8 -15 -1 -26 -6 -26 -10z"/>
<path d="M2794 495 c-3 -8 -4 -20 -2 -27 3 -7 7 -1 10 15 6 29 1 36 -8 12z"/>
<path d="M568 466 c-3 -14 -2 -26 2 -26 13 0 21 33 12 42 -6 6 -11 -1 -14 -16z"/>
<path d="M670 470 c-8 -15 -18 -20 -31 -17 -10 3 -19 1 -19 -4 0 -5 14 -9 32
-9 17 0 28 3 25 7 -4 3 -2 12 5 20 6 7 8 16 5 19 -3 3 -11 -4 -17 -16z"/>
<path d="M731 478 c-1 -10 -8 -18 -16 -18 -8 0 -15 -4 -15 -9 0 -5 20 -9 45
-9 30 -1 43 2 39 9 -4 6 -1 15 6 19 9 5 9 9 1 14 -6 4 -11 2 -11 -4 0 -6 -4
-9 -9 -5 -5 3 -13 0 -17 -6 -5 -8 -3 -9 6 -4 9 5 11 4 6 -3 -10 -17 -15 -15
-26 11 -7 17 -9 18 -9 5z"/>
<path d="M2282 466 c2 -25 4 -26 70 -26 61 0 68 2 68 20 0 17 -7 20 -47 20
-27 0 -58 3 -70 6 -20 6 -23 3 -21 -20z m98 -6 c12 -8 10 -10 -10 -9 -14 1
-36 5 -50 9 -23 7 -22 8 10 9 19 0 42 -4 50 -9z"/>
<path d="M857 473 c-14 -14 -6 -23 21 -23 19 0 29 5 29 15 0 15 -37 21 -50 8z"/>
<path d="M1167 474 c-6 -10 9 -42 16 -34 3 3 1 14 -3 24 -3 11 -9 15 -13 10z"/>
<path d="M1030 461 c0 -5 7 -11 15 -15 9 -3 15 0 15 9 0 8 -7 15 -15 15 -8 0
-15 -4 -15 -9z"/>
<path d="M2197 457 c-3 -8 1 -14 8 -14 7 0 11 6 8 14 -3 7 -6 13 -8 13 -2 0
-5 -6 -8 -13z"/>
<path d="M2952 425 c1 -88 -2 -116 -11 -110 -5 3 -12 1 -16 -5 -10 -16 -25
-12 -25 6 0 13 -3 14 -13 5 -8 -6 -18 -7 -22 -3 -5 4 -5 1 -1 -6 4 -7 12 -10
17 -7 5 4 9 1 9 -4 0 -7 23 -11 55 -11 49 0 55 2 55 21 0 16 -4 19 -21 14 -18
-6 -20 -4 -14 17 4 12 12 26 17 29 7 4 6 8 -1 10 -6 2 -15 24 -21 49 l-9 45 1
-50z"/>
<path d="M21 444 c0 -11 3 -14 6 -6 3 7 2 16 -1 19 -3 4 -6 -2 -5 -13z"/>
<path d="M537 453 c-4 -3 -7 -11 -7 -17 0 -6 5 -5 12 2 6 6 9 14 7 17 -3 3 -9
2 -12 -2z"/>
<path d="M810 450 c-8 -5 -10 -10 -5 -10 6 0 17 5 25 10 8 5 11 10 5 10 -5 0
-17 -5 -25 -10z"/>
<path d="M1 414 c0 -11 3 -14 6 -6 3 7 2 16 -1 19 -3 4 -6 -2 -5 -13z"/>
<path d="M258 423 c-21 -5 -23 -19 -6 -29 7 -4 8 -3 4 4 -4 7 -1 12 8 12 9 0
16 5 16 10 0 6 -1 9 -2 9 -2 -1 -11 -3 -20 -6z"/>
<path d="M590 420 c-145 -4 -196 -8 -197 -17 -4 -16 13 -17 23 -1 5 7 15 2 30
-17 21 -26 29 -17 11 13 -5 8 -2 12 8 12 9 0 13 -4 10 -10 -3 -5 -1 -10 5 -10
6 0 8 -5 5 -10 -11 -18 37 -4 51 15 19 26 28 13 20 -29 -5 -25 -11 -34 -21
-29 -8 3 -15 0 -15 -6 0 -6 7 -11 16 -11 11 0 14 -5 10 -16 -3 -9 -6 -20 -6
-25 0 -5 -4 -9 -10 -9 -5 0 -10 11 -10 23 0 25 -34 64 -43 50 -3 -4 -2 -22 1
-38 6 -30 6 -30 12 -5 l6 25 6 -27 c4 -23 2 -28 -13 -28 -14 0 -19 7 -19 26 0
17 -6 28 -20 31 -11 3 -20 14 -20 25 0 10 -4 17 -9 13 -5 -3 -12 -1 -16 5 -3
5 -11 10 -17 10 -7 0 -6 -6 2 -15 10 -12 10 -15 -2 -15 -11 0 -15 10 -13 35 1
36 1 36 -39 34 l-41 -2 5 -111 5 -111 1189 -3 c870 -1 1192 1 1202 9 15 12 20
171 8 203 -5 14 -56 16 -473 15 -301 0 -458 -4 -443 -10 13 -5 29 -6 35 -2 7
3 9 3 5 -2 -4 -4 4 -16 17 -27 14 -11 25 -26 25 -34 0 -12 -4 -12 -24 1 -23
15 -27 15 -50 0 -15 -10 -33 -14 -46 -10 -13 4 -20 2 -20 -7 -1 -10 -4 -9 -13
2 -7 8 -19 16 -27 18 -20 4 -41 32 -33 45 3 5 8 4 13 -3 5 -8 9 -7 13 4 7 17
33 22 39 7 2 -5 12 -3 22 5 18 13 13 14 -47 14 l-67 0 10 -27 c6 -16 15 -37
21 -49 6 -11 9 -34 6 -50 -3 -25 -4 -24 -6 8 0 21 -4 37 -8 36 -5 -1 -25 2
-45 6 -28 6 -35 12 -32 24 5 15 4 14 -6 0 -18 -29 -51 -43 -61 -27 -12 19 -11
72 0 65 5 -3 7 -16 4 -29 l-6 -22 19 22 c10 13 37 27 59 32 29 7 -17 10 -170
11 -115 1 -229 3 -253 3 -24 1 -41 -2 -39 -8 2 -6 38 -10 80 -10 43 0 77 -3
77 -6 0 -10 35 -6 42 4 9 15 36 -9 41 -36 3 -16 5 -13 6 9 l1 31 58 -1 c57 -1
57 -1 60 -34 3 -31 2 -32 -25 -26 -15 4 -34 7 -43 6 -36 -3 -127 -2 -147 2
-14 3 -26 -1 -32 -11 -8 -14 -11 -14 -40 0 -18 9 -33 12 -37 6 -3 -5 -15 -7
-27 -3 -20 6 -21 6 -4 -19 9 -15 17 -34 16 -44 0 -16 -1 -16 -9 2 -7 17 -9 17
-9 3 -1 -10 -4 -18 -8 -18 -5 0 -7 28 -6 62 2 93 -1 98 -53 98 -46 0 -51 -4
-34 -30 6 -9 13 -11 18 -5 10 14 32 17 32 5 0 -6 -5 -10 -11 -10 -8 0 -9 -4 0
-13 17 -21 0 -29 -21 -10 -11 9 -18 11 -18 5 0 -7 5 -12 10 -12 6 0 10 -4 10
-10 0 -5 -6 -9 -12 -7 -21 4 -22 -55 -2 -70 10 -7 12 -13 6 -13 -7 0 -12 -13
-12 -30 0 -16 -4 -30 -9 -30 -12 0 -21 95 -14 160 l6 58 -84 6 c-46 3 -97 5
-114 3 -16 -1 -118 -4 -225 -7z m-232 -81 c-2 -32 0 -59 5 -59 5 0 7 -11 5
-25 -4 -18 -2 -22 6 -16 9 7 103 8 159 2 4 -1 7 -8 7 -17 0 -15 -47 -16 -202
-4 -19 1 -19 1 -23 123 -3 54 -1 57 17 51 15 -4 18 -3 13 6 -5 9 -4 11 4 6 8
-5 11 -28 9 -67z m162 56 c0 -9 -6 -12 -15 -9 -8 4 -15 10 -15 15 0 5 7 9 15
9 8 0 15 -7 15 -15z m70 5 c6 10 15 10 38 2 21 -7 33 -7 40 0 8 8 15 8 26 -1
11 -9 15 -9 19 1 4 10 9 8 20 -5 9 -11 16 -14 19 -7 6 19 63 23 78 5 11 -14
14 -13 26 2 13 17 14 17 7 -1 -4 -14 -2 -17 8 -14 8 3 13 9 12 14 -1 5 12 10
28 11 27 2 29 0 29 -37 l0 -40 -45 0 c-30 0 -47 5 -53 16 -8 14 -13 14 -32 4
-20 -11 -22 -10 -17 4 6 14 3 15 -15 5 -17 -9 -23 -9 -26 0 -3 8 -8 7 -16 -4
-15 -20 -63 -26 -96 -12 -33 14 -53 15 -62 3 -12 -17 -16 -3 -10 34 3 19 7 29
10 21 3 -10 6 -11 12 -1z m1390 -20 c0 -16 4 -30 9 -30 4 0 7 12 5 26 -2 19 1
24 12 20 8 -3 14 -1 14 5 0 6 6 9 13 6 6 -2 11 -11 9 -21 -2 -10 4 -16 17 -16
14 0 19 5 15 15 -4 10 0 15 15 15 25 0 26 -7 4 -32 -17 -19 -63 -25 -63 -8 0
6 -4 10 -10 10 -5 0 -8 -21 -6 -47 2 -27 1 -33 -1 -15 -2 17 -6 32 -8 32 -17
0 -35 -15 -34 -29 0 -10 2 -11 6 -3 9 22 20 13 15 -13 -6 -36 -19 -31 -31 13
-16 55 -14 102 4 102 10 0 15 -10 15 -30z m202 21 c-10 -6 -8 -10 8 -14 15 -4
20 -2 17 7 -4 10 20 13 109 14 80 0 114 -3 114 -11 0 -7 5 -5 10 3 7 11 10 11
10 2 0 -7 -7 -24 -16 -37 -10 -15 -12 -25 -5 -25 6 0 11 -4 11 -10 0 -12 -114
-2 -118 11 -5 13 -32 11 -32 -2 0 -8 -5 -7 -15 1 -9 7 -18 10 -21 7 -3 -3 -17
-1 -31 4 -18 7 -30 6 -41 -3 -25 -21 -70 -19 -75 4 -5 17 -2 19 19 15 23 -4
25 -2 20 19 -6 21 -3 24 21 24 19 0 24 -3 15 -9z m315 -2 c8 -8 17 -8 32 0 21
12 131 8 152 -4 6 -4 9 -16 6 -26 -3 -11 -1 -19 5 -19 6 0 7 -7 3 -17 -4 -10
-7 -42 -7 -72 2 -46 0 -52 -13 -41 -12 10 -15 10 -15 -3 0 -12 -7 -13 -33 -8
-18 5 -40 7 -50 5 -9 -1 -17 3 -17 9 0 7 -5 4 -11 -5 -13 -23 -77 -25 -86 -3
-7 20 24 45 57 44 17 -1 19 -3 8 -6 -10 -2 -18 -8 -18 -13 0 -9 40 -1 57 12 7
6 13 4 15 -4 8 -22 58 11 58 38 0 12 6 25 13 27 7 3 4 6 -7 6 -12 1 -16 6 -13
15 7 18 -24 30 -54 21 -15 -5 -22 -2 -26 14 -5 21 -33 30 -33 10 0 -5 5 -7 10
-4 6 3 10 -1 10 -10 0 -12 -8 -14 -37 -11 -20 3 -43 0 -50 -6 -9 -7 -13 -7
-13 1 0 6 5 11 10 11 6 0 10 11 10 25 0 26 18 33 37 14z m-1510 -29 c1 -20 -2
-30 -12 -30 -19 0 -27 16 -20 40 10 30 30 24 32 -10z m951 0 c0 -16 -4 -30 -9
-30 -6 0 -7 5 -4 10 3 6 1 10 -4 10 -6 0 -11 -4 -11 -10 0 -19 -19 -10 -40 20
l-21 30 44 0 c42 0 44 -1 45 -30z m197 20 c3 -5 1 -10 -4 -10 -6 0 -11 5 -11
10 0 6 2 10 4 10 3 0 8 -4 11 -10z m-1745 -62 c0 6 4 12 8 12 4 0 6 -16 4 -35
-4 -32 -22 -51 -22 -22 0 6 -3 23 -6 37 -4 20 -3 22 5 10 7 -10 11 -11 11 -2z
m223 -20 c-6 -35 -11 -44 -17 -37 -2 2 -6 19 -9 37 -6 27 -4 32 13 32 17 0 19
-5 13 -32z m137 -3 c0 -24 -5 -35 -15 -35 -18 0 -19 23 -3 50 17 27 18 26 18
-15z m38 4 c1 -42 12 -51 12 -9 0 18 3 30 7 26 11 -10 10 -50 -1 -58 -19 -13
-36 5 -36 38 0 43 17 45 18 3z m52 -4 c0 -19 -2 -35 -4 -35 -2 0 -6 16 -8 35
-2 19 0 35 4 35 4 0 8 -16 8 -35z m250 14 c0 -6 -4 -7 -10 -4 -5 3 -10 -3 -10
-15 0 -12 5 -18 10 -15 6 3 10 1 10 -4 0 -6 -7 -11 -15 -11 -15 0 -22 50 -9
63 9 8 24 -1 24 -14z m87 -31 c-2 -13 -4 -5 -4 17 -1 22 1 32 4 23 2 -10 2
-28 0 -40z m113 42 c0 -5 -7 -7 -15 -4 -8 4 -15 8 -15 10 0 2 7 4 15 4 8 0 15
-4 15 -10z m150 -20 c5 0 11 8 13 18 3 9 5 1 6 -19 1 -23 7 -39 17 -43 8 -3
13 -10 9 -15 -3 -5 0 -13 6 -17 8 -5 9 -3 4 5 -5 9 2 12 27 10 18 -2 38 0 45
4 6 4 17 2 25 -5 7 -7 24 -15 37 -16 18 -3 22 0 18 11 -4 11 0 15 14 14 10 -1
19 -7 19 -14 0 -7 5 -13 10 -13 6 0 10 -4 10 -10 0 -13 -46 -13 -71 0 -11 6
-19 7 -19 1 0 -5 -16 -11 -36 -13 -29 -3 -38 -1 -42 14 -2 10 -8 18 -13 18 -5
0 -6 -7 -2 -16 5 -13 0 -15 -30 -10 -20 3 -39 2 -42 -3 -5 -9 -174 -4 -184 5
-15 13 19 16 82 7 68 -10 73 -9 96 12 18 17 21 27 14 40 -7 12 -12 14 -17 6
-14 -21 -24 -11 -21 22 4 41 6 46 12 25 2 -10 8 -18 13 -18z m130 -5 c0 -24
-5 -35 -15 -35 -18 0 -20 35 -2 55 17 20 17 19 17 -20z m27 -17 c-2 -13 -4 -5
-4 17 -1 22 1 32 4 23 2 -10 2 -28 0 -40z m249 41 c7 -12 -15 -59 -28 -59 -4
0 -8 16 -8 35 0 35 20 49 36 24z m220 -5 c-3 -9 -6 -24 -6 -35 0 -10 -7 -19
-15 -19 -18 0 -19 23 -3 50 15 24 33 27 24 4z m162 -4 c3 -8 0 -10 -9 -5 -11
6 -12 5 -1 -6 6 -7 12 -19 12 -26 0 -16 -26 -17 -36 -1 -5 8 -2 9 11 4 17 -6
18 -5 3 11 -16 19 -13 46 5 40 6 -2 13 -9 15 -17z m42 -15 c0 -19 -4 -35 -10
-35 -5 0 -10 16 -10 35 0 19 5 35 10 35 6 0 10 -16 10 -35z m199 -2 c-1 -37
-1 -37 -8 -8 -7 28 -5 45 5 45 2 0 3 -17 3 -37z m44 25 c2 -7 0 -24 -5 -38
l-10 -25 -9 24 c-10 26 -6 51 10 51 5 0 11 -6 14 -12z m44 -2 c-3 -7 -1 -18 5
-24 6 -6 7 -15 4 -21 -9 -14 -36 -14 -36 0 0 5 5 7 10 4 6 -3 10 -1 10 4 0 6
-4 11 -10 11 -5 0 -10 9 -10 20 0 12 7 20 16 20 10 0 14 -6 11 -14z m63 4 c0
-5 -6 -10 -12 -10 -9 0 -9 -3 1 -9 8 -5 11 -16 8 -25 -7 -18 -37 -22 -37 -5 0
5 5 7 10 4 6 -3 10 -2 10 4 0 5 -5 11 -12 13 -16 6 -2 38 17 38 8 0 15 -4 15
-10z m-1300 -22 c-11 -12 -23 -18 -27 -14 -5 4 1 14 11 22 30 21 39 17 16 -8z
m80 12 c0 -5 -4 -10 -10 -10 -5 0 -10 5 -10 10 0 6 5 10 10 10 6 0 10 -4 10
-10z m387 -22 c-3 -7 -5 -2 -5 12 0 14 2 19 5 13 2 -7 2 -19 0 -25z m-1337 -3
c0 -16 -6 -25 -15 -25 -15 0 -21 31 -8 43 13 14 23 6 23 -18z m206 9 c-3 -9
-6 -20 -6 -25 0 -5 -4 -9 -10 -9 -5 0 -10 11 -10 25 0 16 6 25 16 25 11 0 14
-5 10 -16z m52 -12 c3 -17 -2 -22 -17 -22 -12 0 -21 5 -21 11 0 5 6 7 13 3 9
-6 9 -5 0 8 -7 8 -10 18 -6 22 12 11 28 0 31 -22z m172 3 c0 -16 -6 -25 -15
-25 -15 0 -21 31 -8 43 13 14 23 6 23 -18z m58 -3 c3 -17 -2 -22 -17 -22 -16
0 -21 6 -21 26 0 33 33 30 38 -4z m50 0 c3 -17 -2 -22 -18 -22 -16 0 -20 4
-16 16 3 9 6 20 6 26 0 19 25 1 28 -20z m234 3 c3 -14 1 -25 -3 -25 -5 0 -9 8
-10 18 0 14 -2 14 -9 -3 -8 -18 -9 -17 -9 8 -1 35 25 37 31 2z m48 0 c0 -16
-6 -25 -15 -25 -15 0 -21 31 -8 43 13 14 23 6 23 -18z m100 0 c0 -16 -6 -25
-15 -25 -15 0 -21 31 -8 43 13 14 23 6 23 -18z m150 -6 c0 -10 -7 -19 -15 -19
-15 0 -21 31 -9 43 11 10 24 -3 24 -24z m123 24 c4 -3 -1 -12 -11 -20 -16 -14
-16 -14 1 -9 11 3 16 2 12 -4 -10 -17 -35 -11 -35 8 0 28 18 41 33 25z m75
-21 c3 -17 -2 -22 -17 -22 -16 0 -21 6 -21 26 0 33 33 30 38 -4z m50 0 c2 -14
-2 -22 -12 -22 -19 0 -29 17 -22 36 8 22 30 12 34 -14z m132 18 c0 -5 -4 -10
-10 -10 -5 0 -7 -7 -4 -15 4 -8 1 -15 -5 -15 -6 0 -11 11 -11 25 0 16 6 25 15
25 8 0 15 -4 15 -10z m40 -15 c0 -16 -6 -25 -15 -25 -15 0 -21 31 -8 43 13 14
23 6 23 -18z m177 9 c1 -5 -2 -16 -7 -24 -12 -20 -35 2 -26 25 6 17 27 16 33
-1z m38 -1 c-4 -10 -9 -33 -12 -50 -4 -26 -2 -33 11 -33 9 0 16 5 16 10 0 6
-4 10 -10 10 -15 0 -12 27 4 33 25 10 38 -17 25 -47 -11 -23 -18 -26 -51 -24
-21 2 -38 8 -38 15 0 21 12 43 21 37 5 -3 9 11 9 30 0 26 4 36 16 36 11 0 14
-5 9 -17z m154 -10 c-1 -22 -2 -24 -7 -8 -5 20 -5 20 -13 0 -7 -17 -8 -16 -8
8 -1 18 4 27 14 27 10 0 15 -9 14 -27z m51 17 c0 -5 -4 -10 -10 -10 -5 0 -10
-5 -10 -11 0 -5 5 -7 10 -4 6 3 10 1 10 -4 0 -6 -7 -11 -15 -11 -15 0 -21 31
-8 43 10 10 23 8 23 -3z m48 -18 c2 -15 -2 -22 -12 -22 -11 0 -16 9 -16 26 0
31 23 28 28 -4z m-1088 -12 c0 -5 -8 -10 -17 -10 -15 0 -16 2 -3 10 19 12 20
12 20 0z m1132 -55 c-3 -16 -11 -20 -38 -19 -19 1 -37 4 -41 8 -3 3 -19 6 -34
6 -20 0 -27 5 -25 17 2 14 12 17 49 14 37 -2 48 1 58 18 13 19 13 19 24 -2 6
-12 9 -31 7 -42z m-1840 31 c4 3 16 1 27 -6 12 -6 21 -7 21 -3 0 4 14 8 30 8
24 0 30 -4 30 -22 0 -19 -6 -23 -32 -24 -18 -1 -45 -3 -61 -5 -15 -1 -25 1
-22 7 4 5 2 9 -4 9 -5 0 -13 -4 -16 -10 -11 -17 -25 -11 -35 16 -15 38 3 59
34 39 13 -8 25 -12 28 -9z m796 2 c18 -18 15 -28 -8 -28 -13 0 -20 7 -20 20 0
23 10 26 28 8z m407 -3 c6 0 16 4 22 8 20 13 53 -11 53 -39 0 -21 -3 -23 -19
-14 -11 5 -23 15 -26 21 -5 7 -12 6 -21 -2 -12 -10 -12 -14 -2 -20 9 -6 6 -9
-9 -9 -20 0 -23 5 -23 38 0 20 4 32 8 27 4 -6 12 -10 17 -10z m163 -1 c12 -22
4 -54 -14 -54 -9 0 -14 12 -14 35 0 37 13 46 28 19z m-1045 -1 c-7 -2 -19 -2
-25 0 -7 3 -2 5 12 5 14 0 19 -2 13 -5z m317 -24 c0 -17 -5 -19 -35 -13 -24 4
-35 2 -35 -5 0 -7 -4 -10 -10 -6 -5 3 -8 11 -6 18 1 7 1 9 -1 5 -8 -13 -23 -9
-23 6 0 11 14 16 48 18 57 4 62 2 62 -23z m120 15 c0 -2 -12 -4 -26 -4 -14 0
-23 4 -20 9 6 8 46 4 46 -5z m389 3 c17 10 19 9 17 -13 -1 -21 -5 -24 -32 -22
-22 1 -30 6 -27 15 3 7 -1 13 -8 13 -11 0 -11 2 1 10 9 6 17 5 22 -3 6 -9 12
-9 27 0z m281 -39 c0 -3 -8 -5 -17 -4 -12 2 -19 13 -21 32 l-3 29 20 -25 c12
-14 21 -28 21 -32z m50 25 c0 -20 -54 -13 -58 8 -2 12 4 15 28 11 17 -2 30
-10 30 -19z m-1203 5 c63 -2 102 -7 100 -13 -2 -5 -8 -10 -13 -10 -5 0 -15 -4
-23 -9 -10 -7 -12 -5 -6 5 6 11 5 12 -6 1 -17 -15 -29 -15 -29 1 0 15 -153 14
-158 -2 -7 -21 -22 -11 -22 15 0 23 3 25 28 20 15 -3 73 -7 129 -8z m243 -12
c0 -23 -3 -24 -42 -19 -24 3 -45 7 -47 9 -10 9 36 33 62 34 22 0 27 -4 27 -24z
m810 -1 c0 -3 -9 -5 -20 -5 -11 0 -20 7 -20 15 0 13 4 14 20 5 11 -6 20 -13
20 -15z m360 13 c0 -7 -4 -20 -10 -28 -8 -12 -11 -12 -27 2 -12 10 -25 13 -38
8 -19 -7 -18 -8 5 -12 25 -5 25 -5 -2 -7 -21 -1 -28 4 -28 17 0 27 9 32 57 32
28 0 43 -4 43 -12z m-1423 -34 c-3 -3 -12 -4 -19 -1 -8 3 -5 6 6 6 11 1 17 -2
13 -5z"/>
<path d="M2286 392 c-2 -4 -1 -14 3 -21 6 -10 10 -9 15 4 3 9 11 13 17 9 8 -4
9 -3 5 4 -8 14 -32 16 -40 4z"/>
<path d="M2390 382 c0 -5 7 -9 15 -9 8 0 15 4 15 9 0 4 -7 8 -15 8 -8 0 -15
-4 -15 -8z"/>
<path d="M2343 356 c0 -9 12 -14 34 -14 36 0 40 6 7 11 -10 1 -24 6 -30 9 -6
4 -11 1 -11 -6z"/>
<path d="M2478 218 c6 -6 18 -8 28 -6 14 3 12 5 -9 10 -19 3 -25 2 -19 -4z"/>
<path d="M215 400 c-4 -6 -9 -8 -13 -6 -4 2 -13 -2 -20 -10 -7 -8 -9 -14 -4
-14 11 0 60 39 50 40 -4 0 -10 -5 -13 -10z"/>
<path d="M2918 403 c7 -3 16 -2 19 1 4 3 -2 6 -13 5 -11 0 -14 -3 -6 -6z"/>
<path d="M130 372 c0 -19 5 -29 15 -29 10 0 12 4 5 12 -6 7 -8 20 -4 29 3 9 1
16 -5 16 -6 0 -11 -13 -11 -28z"/>
<path d="M4 355 c1 -31 4 -35 26 -34 17 1 19 3 8 6 -11 3 -18 14 -18 28 0 13
-4 26 -9 29 -4 3 -8 -10 -7 -29z"/>
<path d="M2880 376 c0 -13 -6 -17 -20 -13 -16 4 -20 0 -20 -19 0 -13 -5 -24
-12 -24 -6 0 -9 -2 -6 -5 5 -6 53 16 55 25 1 3 5 13 9 23 3 10 4 21 0 24 -3 4
-6 -2 -6 -11z"/>
<path d="M30 366 c0 -22 20 -30 21 -9 0 16 1 16 9 -2 8 -19 9 -19 9 3 1 16 -5
22 -19 22 -11 0 -20 -6 -20 -14z"/>
<path d="M2800 365 c0 -16 16 -20 24 -6 3 5 -1 11 -9 15 -9 3 -15 0 -15 -9z"/>
<path d="M2900 375 c0 -2 9 -9 20 -15 16 -9 18 -8 14 5 -5 13 -34 22 -34 10z"/>
<path d="M500 349 c0 -5 5 -7 10 -4 6 3 10 8 10 11 0 2 -4 4 -10 4 -5 0 -10
-5 -10 -11z"/>
<path d="M2 290 c-1 -14 2 -42 7 -63 5 -21 5 -39 0 -43 -5 -3 -9 -15 -8 -27 0
-21 1 -21 9 -2 8 19 9 19 9 1 1 -20 1 -20 16 0 14 19 14 19 15 -1 0 -16 2 -17
10 -5 10 16 15 8 23 -40 3 -15 5 -8 6 18 1 36 -2 42 -19 42 -11 0 -20 6 -20
13 0 8 -4 7 -10 -3 -5 -8 -10 -13 -11 -10 -7 47 -7 70 2 70 5 0 7 -4 4 -10 -3
-5 -2 -10 3 -10 8 0 22 22 22 34 0 2 -10 2 -22 1 -18 -1 -24 5 -29 29 -6 27
-7 28 -7 6z"/>
<path d="M20 296 c0 -8 4 -17 8 -20 4 -2 8 4 8 15 0 10 -4 19 -8 19 -4 0 -8
-6 -8 -14z"/>
<path d="M52 290 c0 -14 2 -19 5 -12 2 6 2 18 0 25 -3 6 -5 1 -5 -13z"/>
<path d="M2978 263 c7 -3 16 -2 19 1 4 3 -2 6 -13 5 -11 0 -14 -3 -6 -6z"/>
<path d="M193 210 c0 -21 4 -37 8 -34 8 4 4 62 -4 70 -2 2 -4 -14 -4 -36z"/>
<path d="M2840 207 c0 -15 6 -17 43 -13 64 7 64 7 27 16 -24 6 -37 5 -42 -3
-6 -9 -11 -8 -18 3 -8 13 -10 12 -10 -3z"/>
<path d="M273 195 c9 -8 17 -20 19 -27 2 -6 9 -8 16 -4 12 7 -19 46 -39 46 -6
0 -4 -7 4 -15z"/>
<path d="M160 171 c0 -6 5 -13 10 -16 6 -3 10 1 10 9 0 9 -4 16 -10 16 -5 0
-10 -4 -10 -9z"/>
<path d="M331 168 c-1 -10 -8 -18 -16 -18 -13 0 -12 -4 5 -22 26 -28 36 -17
23 24 -6 18 -11 25 -12 16z"/>
<path d="M371 139 c3 -39 1 -44 -19 -47 -14 -2 -29 4 -36 14 -10 13 -15 14
-21 4 -5 -9 -4 -11 3 -6 14 8 15 -3 3 -23 -13 -20 -23 3 -19 42 3 31 2 32 -39
35 -33 2 -43 0 -43 -12 0 -8 7 -19 17 -24 10 -6 14 -16 10 -26 -4 -10 -11 -15
-16 -11 -6 3 -40 -1 -76 -10 -37 -8 -82 -15 -102 -15 -32 0 -35 -2 -29 -22 3
-13 6 -27 6 -33 0 -6 5 -3 10 5 6 10 10 11 10 3 0 -19 27 -16 34 3 4 12 2 15
-9 11 -8 -4 -17 -2 -20 3 -4 6 0 10 9 10 23 0 46 -11 41 -20 -3 -4 2 -11 11
-14 12 -4 15 -2 10 9 -3 8 -1 15 4 15 6 0 10 -7 10 -15 0 -19 16 -19 24 0 8
21 26 19 27 -2 0 -12 5 -8 14 12 l14 30 2 -30 c1 -19 3 -23 6 -12 3 10 2 24
-1 32 -4 12 -10 11 -36 -2 -23 -11 -35 -12 -43 -4 -12 12 -5 16 60 30 35 7 43
6 46 -8 3 -11 5 -9 6 6 0 12 5 24 10 28 10 5 15 -6 26 -64 4 -18 10 -29 14
-23 4 6 24 7 54 2 45 -6 48 -5 53 17 4 14 4 49 0 79 l-6 54 107 -4 c60 -2 123
-4 142 -5 25 -1 32 -5 27 -16 -6 -17 2 -45 13 -45 8 0 31 44 31 57 0 4 -7 -2
-15 -13 -18 -24 -20 -5 -1 21 13 20 10 20 -156 24 l-170 3 3 -43z m-29 -89 c4
0 7 5 6 12 -2 6 5 14 15 16 13 3 17 -3 17 -25 0 -27 -1 -28 -45 -25 -25 2 -45
6 -45 8 0 1 5 15 12 30 12 26 12 26 22 5 5 -12 13 -21 18 -21z"/>
<path d="M745 170 c-3 -5 0 -20 6 -32 12 -22 11 -22 -7 -8 -18 14 -18 14 -5
-3 18 -22 33 -17 43 14 6 22 7 21 5 -6 -2 -27 -5 -30 -38 -31 -20 -1 -41 -4
-48 -8 -14 -9 -15 -96 -1 -96 6 0 11 7 11 15 1 8 3 20 4 25 1 6 3 19 4 30 0
11 8 20 17 20 8 0 12 -4 9 -10 -3 -5 -2 -10 3 -10 8 0 23 11 70 50 6 6 12 22
12 35 0 22 -4 25 -39 25 -22 0 -43 -4 -46 -10z"/>
<path d="M873 173 c9 -2 23 -2 30 0 6 3 -1 5 -18 5 -16 0 -22 -2 -12 -5z"/>
<path d="M949 173 c-1 -5 -1 -12 0 -17 1 -5 -17 -6 -41 -3 -27 4 -37 2 -27 -4
22 -14 57 -11 87 8 22 14 25 15 15 2 -12 -14 -11 -68 1 -87 8 -13 -59 -42 -96
-42 -42 0 -33 -6 20 -13 23 -3 40 -1 37 3 -3 4 2 11 11 14 23 9 34 7 34 -4 0
-5 -7 -10 -15 -10 -26 0 -16 -15 10 -16 24 -2 25 1 25 56 0 38 -4 60 -12 63
-10 4 -10 7 0 18 21 23 14 39 -18 39 -16 0 -31 -3 -31 -7z"/>
<path d="M1030 111 c0 -64 2 -70 20 -68 14 1 19 6 14 17 -12 32 -12 49 2 61 8
6 14 16 14 22 0 6 -7 2 -15 -9 -14 -19 -14 -18 -15 4 0 13 6 22 15 22 8 0 15
5 15 10 0 6 -11 10 -25 10 -24 0 -25 -2 -25 -69z"/>
<path d="M1126 172 c-5 -8 10 -98 19 -112 3 -5 1 -11 -5 -15 -5 -3 -10 -2 -10
3 0 5 -11 12 -25 14 -15 3 -25 1 -25 -6 0 -6 39 -20 88 -30 48 -11 94 -22 102
-24 12 -5 13 -3 2 10 -10 13 -47 27 -85 32 -14 2 -25 29 -19 44 3 9 1 13 -5 9
-10 -6 -23 13 -23 34 0 6 22 8 53 5 l52 -5 -45 10 c-25 6 -49 15 -55 21 -7 7
-2 9 15 4 14 -3 40 -6 58 -6 28 0 32 -3 32 -27 0 -62 12 -101 32 -106 11 -3
17 -10 13 -16 -4 -7 6 -11 27 -11 l33 1 -25 14 c-14 7 -28 26 -31 42 -5 23 2
36 40 76 l45 47 -42 0 c-23 0 -42 -4 -42 -10 0 -5 8 -10 17 -10 12 0 14 -3 6
-11 -14 -14 -53 -2 -53 17 0 11 -16 14 -69 14 -39 0 -72 -3 -75 -8z m179 -52
c3 -5 -1 -10 -9 -10 -9 0 -16 -12 -18 -32 -3 -31 -4 -30 -9 10 -4 35 -2 42 13
42 9 0 20 -4 23 -10z"/>
<path d="M1515 161 c-3 -11 -13 -22 -21 -25 -9 -3 -12 -11 -8 -18 4 -7 4 -10
-1 -6 -4 4 -14 3 -22 -3 -10 -9 -13 -7 -13 6 0 17 -1 17 -18 2 -10 -10 -26
-17 -35 -17 -11 0 -17 -8 -17 -25 0 -14 5 -25 10 -25 6 0 10 -7 10 -15 0 -26
-28 -16 -61 22 -17 21 -29 30 -25 20 3 -10 6 -23 6 -28 0 -5 7 -9 16 -9 8 0
13 -3 11 -7 -12 -20 20 -27 73 -16 43 9 48 11 23 12 -21 1 -33 6 -33 15 0 17
43 46 68 46 15 0 18 -6 14 -30 -5 -33 12 -60 37 -60 13 0 13 2 2 9 -11 7 -11
18 -2 60 13 63 14 111 2 111 -5 0 -12 -9 -16 -19z m-70 -71 c-3 -5 -14 -10
-23 -10 -15 0 -15 2 -2 10 20 13 33 13 25 0z"/>
<path d="M1823 164 c24 -29 22 -54 -5 -54 -18 0 -20 -2 -8 -10 27 -17 -1 -25
-30 -8 -21 12 -32 13 -36 6 -4 -6 -3 -8 4 -4 19 12 18 -38 -2 -69 -10 -17 -13
-25 -6 -18 7 6 19 9 26 6 12 -5 20 28 15 60 -1 4 8 3 20 -3 24 -13 21 -15 44
29 17 34 17 34 -11 60 -16 14 -21 17 -11 5z"/>
<path d="M1856 171 c-4 -5 -2 -12 3 -15 5 -4 12 -2 15 3 4 5 2 12 -3 15 -5 4
-12 2 -15 -3z"/>
<path d="M1890 165 c0 -7 11 -16 25 -19 23 -6 24 -9 14 -29 -7 -12 -12 -23
-11 -24 1 -2 0 -3 -3 -3 -3 0 -12 0 -20 0 -8 0 -15 5 -15 10 0 5 4 9 9 7 12
-3 15 17 3 21 -4 1 -14 -9 -20 -23 -15 -32 -15 -38 -2 -30 6 4 24 4 40 0 20
-4 28 -12 27 -26 -1 -16 -6 -18 -37 -13 -19 4 -38 12 -42 17 -4 7 -12 6 -22
-2 -13 -11 -19 -11 -31 -1 -18 15 -18 10 -5 -24 5 -14 15 -26 21 -26 6 0 8 7
5 15 -5 13 0 15 32 9 20 -4 45 -8 55 -10 9 -1 22 -6 27 -9 6 -4 10 27 10 84
l0 90 -30 -1 c-17 -1 -30 -7 -30 -13z"/>
<path d="M2090 169 c-14 -6 -44 -8 -67 -4 l-43 6 0 -86 c0 -55 4 -84 10 -80 6
3 10 12 10 20 0 7 6 16 13 18 7 3 5 6 -5 6 -20 1 -25 31 -5 31 7 0 13 9 14 20
1 13 -2 18 -9 14 -7 -4 -8 -2 -4 4 4 7 18 12 32 12 17 0 24 -5 24 -20 0 -11
-7 -20 -16 -20 -9 0 -12 5 -8 12 4 7 3 8 -4 4 -18 -11 -2 -36 24 -36 21 0 24
-5 24 -36 0 -34 1 -36 28 -29 51 13 62 14 62 4 0 -5 5 -9 11 -9 5 0 7 5 3 11
-4 8 1 9 17 4 13 -3 32 -9 42 -11 11 -4 17 0 17 10 0 8 -6 13 -13 11 -7 -3
-34 -1 -60 4 -33 6 -47 5 -47 -3 0 -8 -2 -8 -8 0 -4 6 -14 14 -22 17 -8 3 0 6
18 6 24 1 32 6 32 19 0 14 -2 15 -10 2 -7 -11 -10 -11 -10 -2 0 9 -5 10 -16 4
-21 -11 -54 14 -54 40 0 25 26 26 92 7 30 -10 37 -17 43 -45 4 -24 11 -34 24
-34 21 0 35 25 24 43 -4 6 -10 0 -15 -14 -9 -22 -10 -23 -19 -6 -19 33 -5 45
45 37 44 -7 45 -6 76 37 33 46 22 61 -12 17 -20 -24 -24 -25 -87 -18 -36 3
-70 9 -76 12 -5 3 -28 5 -50 4 -33 -1 -36 0 -17 8 12 5 22 12 22 15 0 6 1 6
-30 -6z"/>
<path d="M2277 161 c-4 -17 -2 -18 19 -9 29 13 31 28 5 28 -10 0 -21 -9 -24
-19z"/>
<path d="M2980 175 c0 -5 5 -17 10 -25 5 -8 10 -10 10 -5 0 6 -5 17 -10 25 -5
8 -10 11 -10 5z"/>
<path d="M1101 154 c0 -11 3 -14 6 -6 3 7 2 16 -1 19 -3 4 -6 -2 -5 -13z"/>
<path d="M1716 161 c-4 -5 -1 -13 5 -17 8 -4 9 -3 5 4 -5 8 5 12 33 12 21 0
42 -5 44 -10 3 -6 4 -5 3 2 -3 16 -82 23 -90 9z"/>
<path d="M2223 163 c9 -2 23 -2 30 0 6 3 -1 5 -18 5 -16 0 -22 -2 -12 -5z"/>
<path d="M2758 163 c6 -2 12 -11 12 -18 0 -7 7 -16 16 -19 14 -5 15 -4 4 9 -7
8 -9 15 -4 15 5 0 2 5 -6 10 -8 5 -19 9 -25 9 -5 0 -4 -3 3 -6z"/>
<path d="M841 133 c-1 -21 -7 -33 -18 -36 -14 -4 -12 -5 5 -6 13 -1 22 5 22
14 0 9 9 15 23 15 18 0 19 -2 7 -11 -11 -8 -3 -9 30 -4 33 4 42 3 34 -5 -6 -6
-27 -12 -47 -13 -52 -3 -34 -12 25 -12 28 -1 45 1 39 3 -9 3 -9 7 0 18 17 20
9 24 -54 31 -40 4 -57 10 -60 22 -3 9 -5 2 -6 -16z"/>
<path d="M1616 143 c-15 -4 -16 -7 -5 -14 11 -7 10 -11 -6 -24 -20 -16 -20
-16 0 -13 12 2 19 -2 18 -9 -4 -18 14 -16 21 2 3 9 0 15 -10 15 -15 0 -15 2 0
25 17 25 16 26 -18 18z"/>
<path d="M167 133 c-4 -3 -7 -11 -7 -17 0 -6 5 -5 12 2 6 6 9 14 7 17 -3 3 -9
2 -12 -2z"/>
<path d="M1370 131 c0 -17 18 -21 24 -6 3 9 0 15 -9 15 -8 0 -15 -4 -15 -9z"/>
<path d="M26 113 c-6 -14 -5 -15 5 -6 7 7 10 15 7 18 -3 3 -9 -2 -12 -12z"/>
<path d="M632 124 c1 -5 -3 -18 -9 -29 -7 -13 -8 -35 -3 -60 l8 -40 1 52 c0
28 5 54 10 57 4 3 7 -19 6 -49 -2 -30 1 -55 6 -55 16 0 10 106 -7 120 -8 8
-14 9 -12 4z"/>
<path d="M1082 105 c-10 -21 -9 -25 4 -25 8 0 12 5 9 10 -4 6 -1 17 5 25 7 8
8 15 3 15 -5 0 -15 -11 -21 -25z"/>
<path d="M2711 111 c-9 -15 -7 -20 12 -25 36 -10 127 -7 127 4 0 6 15 8 40 4
33 -5 40 -4 40 10 0 14 -4 15 -21 5 -15 -8 -24 -8 -32 0 -8 8 -15 6 -27 -4
-23 -20 -134 -10 -126 11 8 21 -2 17 -13 -5z"/>
<path d="M1660 105 c0 -8 4 -15 8 -15 5 0 9 7 9 15 0 8 -4 15 -9 15 -4 0 -8
-7 -8 -15z"/>
<path d="M2112 106 c7 -8 15 -12 17 -11 5 6 -10 25 -20 25 -5 0 -4 -6 3 -14z"/>
<path d="M1340 97 c0 -7 6 -21 13 -32 13 -16 14 -15 9 13 -4 31 -22 46 -22 19z"/>
<path d="M1690 95 c0 -7 -9 -17 -20 -20 -21 -7 -28 -25 -10 -25 6 0 10 3 10 8
0 4 12 14 26 23 21 13 23 17 10 22 -10 4 -16 1 -16 -8z"/>
<path d="M2150 100 c0 -5 5 -10 10 -10 6 0 10 5 10 10 0 6 -4 10 -10 10 -5 0
-10 -4 -10 -10z"/>
<path d="M1706 71 c-7 -10 22 -37 30 -28 4 3 -1 13 -9 22 -9 8 -18 11 -21 6z"/>
<path d="M2311 58 c0 -14 -4 -33 -7 -42 -4 -10 -1 -16 9 -16 9 0 16 8 16 18
-1 9 2 28 5 42 5 20 5 21 -2 5 -9 -20 -9 -20 -14 0 -5 16 -6 15 -7 -7z"/>
<path d="M2675 69 c-4 -6 -5 -12 -2 -15 2 -3 7 2 10 11 7 17 1 20 -8 4z"/>
<path d="M810 56 c14 -18 13 -19 -22 -14 -20 2 -34 0 -32 -4 3 -4 16 -8 30 -8
14 0 23 -4 20 -9 -3 -5 1 -12 10 -15 9 -4 18 -5 18 -4 1 2 7 15 14 30 9 23 9
26 -4 21 -8 -3 -22 1 -32 8 -16 13 -16 13 -2 -5z"/>
<path d="M1897 59 c7 -7 15 -10 18 -7 3 3 -2 9 -12 12 -14 6 -15 5 -6 -5z"/>
<path d="M2175 60 c-3 -5 -1 -10 4 -10 6 0 11 5 11 10 0 6 -2 10 -4 10 -3 0
-8 -4 -11 -10z"/>
<path d="M2705 60 c-3 -5 -2 -10 4 -10 5 0 13 5 16 10 3 6 2 10 -4 10 -5 0
-13 -4 -16 -10z"/>
<path d="M1571 33 c-12 -14 -18 -29 -15 -32 4 -3 9 -1 11 5 2 6 10 20 18 30
13 16 14 17 9 2 -8 -24 1 -23 26 2 20 20 20 20 -4 20 -15 0 -33 -11 -45 -27z"/>
<path d="M2552 30 c0 -19 2 -27 5 -17 2 9 2 25 0 35 -3 9 -5 1 -5 -18z"/>
<path d="M2792 55 c11 -11 58 -15 58 -5 0 5 -14 10 -32 10 -17 0 -29 -2 -26
-5z"/>
<path d="M2035 25 l-30 -25 33 0 c28 0 32 3 32 25 0 30 2 30 -35 0z"/>
<path d="M2738 43 c6 -2 18 -2 25 0 6 3 1 5 -13 5 -14 0 -19 -2 -12 -5z"/>
<path d="M2673 18 c1 -20 12 -24 23 -7 4 7 19 8 38 4 17 -3 63 -8 101 -10 80
-4 59 1 -72 19 -87 12 -91 12 -90 -6z"/>
<path d="M543 23 c-7 -3 -13 -9 -13 -15 0 -7 5 -6 14 1 11 9 15 9 19 -1 2 -7
7 -10 11 -7 9 9 -17 27 -31 22z"/>
<path d="M1040 10 c-12 -8 -9 -10 13 -10 16 0 26 4 22 10 -8 12 -16 12 -35 0z"/>
<path d="M1640 9 c0 -5 5 -7 10 -4 6 3 10 8 10 11 0 2 -4 4 -10 4 -5 0 -10 -5
-10 -11z"/>
<path d="M1695 10 c-16 -7 -17 -9 -3 -9 9 -1 20 4 23 9 7 11 7 11 -20 0z"/>
<path d="M758 3 c7 -3 16 -2 19 1 4 3 -2 6 -13 5 -11 0 -14 -3 -6 -6z"/>
</g>
</svg>
